<?xml version="1.0" standalone="no"?>
<!DOCTYPE svg PUBLIC "-//W3C//DTD SVG 1.1//EN" "http://www.w3.org/Graphics/SVG/1.1/DTD/svg11.dtd" >
<svg xmlns="http://www.w3.org/2000/svg">
<metadata>Generated by IcoMoon</metadata>
<defs>
<font id="Angola-ico" horiz-adv-x="1024">
<font-face units-per-em="1024" ascent="960" descent="-64" />
<missing-glyph horiz-adv-x="1024" />
<glyph unicode="&#x20;" horiz-adv-x="512" d="" />
<glyph unicode="&#xe900;" glyph-name="ic_create" d="M128 224v-160h160l472.107 472.107-160 160-472.107-472.107zM883.413 659.413c16.64 16.64 16.64 43.733 0 60.373l-99.627 99.627c-16.64 16.64-43.733 16.64-60.373 0l-78.080-78.080 160-160 78.080 78.080z" />
<glyph unicode="&#xe901;" glyph-name="ic_flag" d="M614.4 704l-17.067 85.333h-384v-725.333h85.333v298.667h238.933l17.067-85.333h298.667v426.667z" />
<glyph unicode="&#xe902;" glyph-name="ic_microphone" d="M505.6 292.267c102.4 0 185.6 83.2 185.6 185.6v181.333c0 102.4-83.2 185.6-185.6 185.6s-185.6-83.2-185.6-185.6v-181.333c2.133-102.4 85.333-185.6 185.6-185.6v0zM247.467 305.067c61.867-64 147.2-102.4 234.667-108.8v-93.867h-64c-12.8 0-23.467-12.8-23.467-25.6s12.8-23.467 25.6-23.467h170.667c8.533 0 17.067 4.267 21.333 12.8s4.267 17.067-2.133 25.6c-4.267 8.533-12.8 12.8-21.333 10.667h-55.467v93.867c93.867 4.267 181.333 44.8 245.333 110.933 8.533 6.4 8.533 17.067 6.4 27.733-4.267 8.533-12.8 14.933-23.467 14.933-6.4 0-12.8-2.133-17.067-8.533-61.867-64-145.067-98.133-232.533-98.133s-170.667 34.133-232.533 98.133v0c-4.267 4.267-10.667 8.533-19.2 8.533-6.4 0-12.8-2.133-17.067-8.533-4.267-4.267-6.4-10.667-6.4-17.067 2.133-8.533 4.267-14.933 10.667-19.2z" />
<glyph unicode="&#xe903;" glyph-name="ic_position" d="M512 836.267c-177.067 0-322.133-145.067-322.133-322.133 0-81.067 29.867-157.867 81.067-213.333 2.133-2.133 2.133-4.267 4.267-6.4l209.067-219.733c2.133-2.133 2.133-2.133 4.267-4.267s4.267-4.267 6.4-4.267c12.8-8.533 29.867-8.533 40.533 4.267 2.133 2.133 4.267 6.4 6.4 8.533l204.8 215.467c2.133 2.133 2.133 4.267 4.267 6.4 51.2 57.6 83.2 132.267 83.2 215.467 0 177.067-145.067 320-322.133 320v0zM512 381.867c-72.533 0-130.133 57.6-130.133 130.133s57.6 130.133 130.133 130.133c72.533 0 130.133-57.6 130.133-130.133 0-70.4-57.6-130.133-130.133-130.133v0z" />
<glyph unicode="&#xe904;" glyph-name="ic_recall" d="M418.133 394.667c-70.4 70.4-136.533 151.467-104.533 183.467 44.8 44.8 85.333 74.667 4.267 174.933s-134.4 23.467-179.2-21.333c-51.2-51.2-2.133-241.067 185.6-428.8 187.733-189.867 377.6-238.933 428.8-187.733 44.8 44.8 121.6 98.133 21.333 179.2s-128 40.533-174.933-4.267c-32-32-113.067 34.133-181.333 104.533v0zM755.2 757.333v-256l149.333 128-149.333 128zM654.933 667.733h100.267v-81.067h-100.267v81.067zM554.667 667.733h74.667v-81.067h-74.667v81.067zM452.267 667.733h51.2v-81.067h-51.2v81.067z" />
<glyph unicode="&#xe905;" glyph-name="ic_search" d="M883.2 134.4l-177.067 177.067c42.667 55.467 68.267 123.733 68.267 198.4 0 177.067-145.067 322.133-324.267 322.133-177.067 0-322.133-145.067-322.133-324.267s145.067-322.133 322.133-322.133c74.667 0 142.933 25.6 198.4 68.267l177.067-177.067c8.533-8.533 19.2-12.8 27.733-12.8s21.333 4.267 27.733 12.8c17.067 14.933 17.067 40.533 2.133 57.6v0zM209.067 507.733c0 134.4 108.8 241.067 241.067 241.067 134.4 0 241.067-108.8 241.067-241.067 0-134.4-108.8-241.067-241.067-241.067s-241.067 108.8-241.067 241.067v0z" />
<glyph unicode="&#xe906;" glyph-name="ic_submit" d="M864 588.8c-14.933 29.867-23.467 36.267-23.467 36.267-29.867 32-68.267 4.267-68.267 4.267l-51.2-51.2c-2.133 0-2.133-2.133-4.267-2.133l-219.733-219.733-140.8 140.8c-14.933 14.933-34.133 14.933-49.067 0s-14.933-34.133 0-49.067l160-164.267c4.267-4.267 14.933-10.667 23.467-10.667 10.667 0 14.933 4.267 29.867 10.667l243.2 243.2c2.133 2.133 2.133 2.133 4.267 4.267 19.2 19.2 42.667 40.533 42.667 40.533l4.267-10.667c0-2.133 0-2.133 2.133-4.267 14.933-34.133 19.2-72.533 19.2-110.933 0-179.2-145.067-330.667-330.667-330.667-179.2 0-330.667 145.067-330.667 330.667 0 179.2 145.067 330.667 330.667 330.667 64 0 125.867-19.2 179.2-53.333 14.933-4.267 29.867-4.267 38.4 10.667 4.267 4.267 4.267 14.933 4.267 19.2 0 10.667-4.267 14.933-10.667 19.2-57.6 44.8-132.267 64-209.067 64-209.067-4.267-379.733-179.2-379.733-388.267s170.667-384 384-384c53.333 0 102.4 10.667 151.467 29.867 44.8 19.2 87.467 49.067 121.6 83.2s64 76.8 83.2 121.6c19.2 49.067 29.867 98.133 29.867 151.467-2.133 42.667-12.8 96-34.133 138.667v0z" />
<glyph unicode="&#xe907;" glyph-name="ic_time" d="M556.8 409.6v0c-10.667-10.667-25.6-17.067-38.4-17.067-6.4 0-12.8 2.133-17.067 2.133-8.533 10.667-19.2 21.333-29.867 29.867-6.4 19.2-2.133 40.533 10.667 55.467v0l2.133 2.133c4.267 4.267 8.533 6.4 14.933 8.533l181.333 113.067-113.067-181.333c-4.267-2.133-8.533-8.533-10.667-12.8v0zM512 832c211.2 0 384-170.667 384-384 0-211.2-170.667-384-384-384-211.2 0-384 170.667-384 384 2.133 211.2 172.8 384 384 384v0zM512 134.4c172.8 0 313.6 140.8 313.6 313.6s-140.8 313.6-313.6 313.6c-172.8 0-313.6-140.8-313.6-313.6s140.8-313.6 313.6-313.6v0z" />
<glyph unicode="&#xe908;" glyph-name="ic_person" d="M512 364.8c89.6 0 179.2 83.2 187.733 209.067s-74.667 247.467-187.733 247.467-194.133-119.467-187.733-247.467c8.533-125.867 98.133-209.067 187.733-209.067zM512 334.933c-209.067 0-373.333-83.2-373.333-194.133 0-38.4 29.867-51.2 125.867-59.733 66.133-6.4 155.733-6.4 247.467-6.4s187.733 0 247.467 6.4c96 14.933 125.867 21.333 125.867 59.733 0 104.533-170.667 194.133-373.333 194.133z" />
<glyph unicode="&#xe909;" glyph-name="ic_psw" d="M307.2 644.267c0-87.467 59.733-162.133 140.8-189.867h-4.267v-337.067l68.267-64 38.4 42.667v61.867l-14.933 12.8 46.933 44.8-46.933 44.8 42.667 42.667v23.467l-44.8 49.067 46.933 38.4v40.533c78.933 27.733 136.533 102.4 136.533 187.733 0 110.933-91.733 200.533-204.8 200.533s-204.8-89.6-204.8-198.4zM569.6 714.667c0-32-25.6-57.6-57.6-57.6s-57.6 25.6-57.6 57.6c0 32 25.6 57.6 57.6 57.6s57.6-25.6 57.6-57.6z" />
<glyph unicode="&#xe90a;" glyph-name="ic_PhoneQueue" d="M288 672h279.467v-57.6h-279.467v57.6zM288 556.8h281.6v-57.6h-281.6v57.6zM288 439.467h281.6v-57.6h-281.6v57.6zM290.133 322.133h277.333v-57.6h-277.333v57.6zM462.933 130.133h-232.533v640h522.667v-290.133h59.733v352h-640v-759.467h290.133zM727.467 198.4c-14.933-17.067-36.267-29.867-36.267-29.867s-27.733-21.333-46.933-8.533c-42.667 27.733-40.533 36.267-61.867 25.6-72.533-42.667-68.267-72.533-68.267-78.933 6.4-27.733 55.467-51.2 106.667-36.267 55.467 14.933 104.533 44.8 145.067 87.467s68.267 96 81.067 155.733c12.8 55.467-8.533 106.667-34.133 113.067-6.4 2.133-34.133 4.267-74.667-72.533-10.667-21.333-2.133-21.333 23.467-66.133 12.8-21.333-8.533-49.067-8.533-49.067s-10.667-23.467-25.6-40.533v0zM644.267 674.133h59.733v-59.733h-59.733v59.733zM644.267 556.8h59.733v-59.733h-59.733v59.733z" />
<glyph unicode="&#xe90b;" glyph-name="ic_InvalidTel" d="M279.467 672h279.467v-57.6h-279.467v57.6zM279.467 556.8h281.6v-57.6h-281.6v57.6zM279.467 439.467h170.667v-57.6h-170.667v57.6zM281.6 322.133h108.8v-57.6h-108.8v57.6zM454.4 130.133h-232.533v640h522.667v-290.133h57.6v352h-640v-759.467h292.267zM635.733 674.133h59.733v-59.733h-59.733v59.733zM635.733 556.8h59.733v-59.733h-59.733v59.733zM537.6 123.733c74.667-74.667 194.133-74.667 266.667 0 74.667 74.667 74.667 194.133 0 266.667-74.667 74.667-194.133 74.667-266.667 0s-72.533-194.133 0-266.667v0 0zM753.067 140.8c-55.467-38.4-132.267-34.133-181.333 14.933s-55.467 128-14.933 181.333l196.267-196.267zM588.8 373.333c55.467 38.4 132.267 34.133 181.333-14.933s55.467-128 14.933-181.333l-196.267 196.267z" />
<glyph unicode="&#xe90c;" glyph-name="ic_list" d="M352 725.333h546.133v-104.533h-546.133v104.533zM125.867 725.333h106.667v-104.533h-106.667v104.533zM352 501.333h546.133v-104.533h-546.133v104.533zM125.867 501.333h106.667v-104.533h-106.667v104.533zM352 275.2h546.133v-104.533h-546.133v104.533zM125.867 275.2h106.667v-104.533h-106.667v104.533z" />
<glyph unicode="&#xe90d;" glyph-name="ic_static" d="M556.8 746.667v85.333h-87.467v-85.333h-347.733v-85.333h44.8v-430.933h273.067l-170.667-130.133 29.867-34.133 211.2 168.533 211.2-168.533 29.867 34.133-166.4 134.4h279.467v428.8h44.8v83.2h-352zM814.933 275.2h-605.867v384h605.867v-384zM334.933 362.667v128h132.267c0 61.867-53.333 110.933-117.333 110.933s-117.333-53.333-117.333-115.2c6.4-61.867 40.533-125.867 102.4-123.733v0zM379.733 317.867c68.267 0 132.267 66.133 132.267 130.133h-132.267v-130.133zM727.467 578.133h-128v-42.667h132.267v42.667h-4.267zM727.467 490.667h-128v-42.667h132.267v42.667h-4.267zM727.467 405.333h-128v-42.667h132.267v42.667h-4.267z" />
<glyph unicode="&#xe90e;" glyph-name="ic_seat" d="M787.2 198.4c-29.867-27.733-72.533-44.8-117.333-44.8s-87.467 17.067-117.333 44.8c-55.467-27.733-91.733-76.8-91.733-145.067h420.267c-2.133 68.267-38.4 117.333-93.867 145.067zM533.333 258.133v106.667c-2.133 0-2.133 0-4.267 0 23.467 53.333 78.933 89.6 140.8 89.6s117.333-36.267 140.8-89.6c-2.133 0-2.133 0-4.267 0v-106.667c29.867 0 55.467 23.467 55.467 53.333 0 19.2-10.667 38.4-27.733 46.933-23.467 66.133-87.467 113.067-162.133 113.067s-138.667-46.933-162.133-113.067c-17.067-8.533-27.733-25.6-27.733-46.933-4.267-27.733 19.2-53.333 51.2-53.333zM669.867 418.133c-66.133 0-117.333-51.2-117.333-115.2s53.333-115.2 117.333-115.2 117.333 51.2 117.333 115.2-53.333 115.2-117.333 115.2zM260.267 684.8h394.667v-57.6h-394.667v57.6zM260.267 567.467h281.6v-57.6h-281.6v57.6zM260.267 450.133h192v-57.6h-192v57.6zM262.4 332.8h168.533v-57.6h-168.533v57.6zM435.2 140.8h-232.533v640h524.8v-288h57.6v349.867h-640v-759.467h290.133z" />
<glyph unicode="&#xe90f;" glyph-name="ic_duty" d="M725.333 76.8l8.533 19.2-27.733 44.8c0 0 0 0 0 0l21.333 19.2c6.4 6.4 6.4 14.933 0 19.2h-61.867c-6.4-6.4-6.4-14.933 0-19.2l21.333-19.2c0 0 0 0 0 0l-25.6-44.8 12.8-19.2c-89.6 4.267-160 34.133-160 68.267 0 51.2 49.067 66.133 119.467 68.267 10.667 14.933 19.2 34.133 14.933 53.333-19.2 14.933-34.133 38.4-40.533 66.133-2.133 0-2.133 0-4.267 0-8.533 0-14.933 6.4-14.933 14.933v27.733c0 8.533 6.4 12.8 14.933 14.933 6.4 64 49.067 113.067 102.4 113.067s96-49.067 102.4-115.2c2.133 0 2.133 0 4.267 0 8.533 0 14.933-6.4 14.933-14.933v-27.733c0-8.533-6.4-14.933-14.933-14.933-4.267 0-6.4 2.133-8.533 2.133-8.533-34.133-27.733-61.867-53.333-76.8-2.133-14.933 6.4-32 14.933-44.8 72.533-2.133 123.733-14.933 123.733-68.267-4.267-34.133-74.667-61.867-164.267-66.133v0zM699.733 622.933c0-6.4-6.4-12.8-12.8-12.8s-12.8 6.4-12.8 12.8c0 6.4 6.4 12.8 12.8 12.8s12.8-6.4 12.8-12.8v0zM618.667 676.267c0-6.4-6.4-12.8-12.8-12.8s-12.8 6.4-12.8 12.8c0 6.4 6.4 12.8 12.8 12.8s12.8-6.4 12.8-12.8zM285.867 529.067c-6.4 0-12.8 6.4-12.8 12.8s6.4 12.8 12.8 12.8c6.4 0 12.8-6.4 12.8-12.8s-6.4-12.8-12.8-12.8zM285.867 343.467c-6.4 0-12.8 6.4-12.8 12.8s6.4 12.8 12.8 12.8c6.4 0 12.8-6.4 12.8-12.8 0-8.533-6.4-12.8-12.8-12.8zM339.2 610.133c-6.4 0-12.8 6.4-12.8 12.8s6.4 12.8 12.8 12.8c6.4 0 12.8-6.4 12.8-12.8 0 0 0 0 0 0 0-8.533-6.4-12.8-12.8-12.8v0zM339.2 262.4c-6.4 0-12.8 6.4-12.8 12.8s6.4 12.8 12.8 12.8c6.4 0 12.8-6.4 12.8-12.8 0 0 0 0 0 0 0-6.4-6.4-12.8-12.8-12.8zM433.067 221.867c0-6.4-6.4-12.8-12.8-12.8s-12.8 6.4-12.8 12.8c0 6.4 6.4 12.8 12.8 12.8 6.4 2.133 12.8-4.267 12.8-12.8zM405.333 676.267c0 6.4 6.4 12.8 12.8 12.8s12.8-6.4 12.8-12.8c0-6.4-6.4-12.8-12.8-12.8s-12.8 4.267-12.8 12.8zM524.8 610.133h25.6c6.4 0 12.8-6.4 12.8-12.8v-160c0-6.4-6.4-12.8-12.8-12.8h-185.6c-6.4 0-12.8 6.4-12.8 12.8v25.6c0 6.4 6.4 12.8 12.8 12.8h147.2v119.467c0 8.533 6.4 14.933 12.8 14.933v0zM819.2 582.4c-12.8 0-25.6 6.4-32 17.067h-2.133c-51.2 83.2-142.933 138.667-245.333 142.933v-53.333h-27.733v53.333c-157.867-6.4-285.867-134.4-292.267-292.267h53.333v-25.6h-53.333c6.4-123.733 83.2-228.267 192-270.933v0c12.8-6.4 21.333-19.2 21.333-34.133 0-21.333-17.067-40.533-40.533-40.533v-2.133c-4.267 2.133-8.533 4.267-10.667 4.267s-4.267 2.133-6.4 2.133c-138.667 59.733-234.667 196.267-234.667 354.133 0 213.333 172.8 386.133 386.133 386.133 132.267 0 249.6-68.267 317.867-170.667 6.4-4.267 10.667-10.667 12.8-17.067 0 0 0 0 0 0v0c2.133-4.267 2.133-8.533 2.133-12.8 0-23.467-19.2-40.533-40.533-40.533v0z" />
<glyph unicode="&#xe910;" glyph-name="ic_approve" d="M258.133 686.933h426.667v-46.933h-426.667v46.933zM849.067 230.4c2.133 2.133 4.267 6.4 8.533 10.667 2.133 4.267 2.133 8.533-2.133 12.8l-6.4 6.4c-4.267 4.267-6.4 6.4-6.4 6.4-4.267 2.133-8.533 4.267-12.8 2.133s-8.533-6.4-12.8-10.667c-10.667-10.667-21.333-21.333-32-32s-19.2-19.2-29.867-29.867c-4.267-4.267-6.4-4.267-10.667-6.4-4.267 0-6.4 0-8.533 4.267l-6.4 6.4c-2.133 4.267-6.4 6.4-8.533 10.667l-8.533 10.667c-2.133 4.267-4.267 6.4-6.4 6.4-2.133 2.133-6.4 4.267-8.533 4.267-4.267 0-6.4 0-10.667-4.267l-4.267-2.133c-2.133-2.133-4.267-4.267-6.4-6.4s-4.267-4.267-6.4-6.4l-4.267-2.133c-6.4-6.4-6.4-14.933 2.133-25.6 2.133-4.267 6.4-6.4 10.667-12.8 4.267-4.267 8.533-10.667 14.933-14.933 4.267-6.4 10.667-10.667 14.933-17.067 4.267-4.267 8.533-8.533 12.8-12.8s8.533-6.4 14.933-4.267c6.4 0 10.667 2.133 14.933 6.4 6.4 6.4 14.933 12.8 21.333 21.333 8.533 8.533 17.067 17.067 25.6 25.6s17.067 17.067 25.6 25.6c10.667 14.933 19.2 21.333 25.6 27.733v0 0zM755.2 369.067c21.333 0 40.533-4.267 59.733-12.8s34.133-19.2 49.067-32c12.8-12.8 25.6-29.867 32-49.067 8.533-19.2 12.8-38.4 12.8-57.6 0-21.333-4.267-40.533-12.8-59.733s-19.2-34.133-32-49.067c-14.933-12.8-29.867-23.467-49.067-32s-38.4-10.667-59.733-10.667c-21.333 0-40.533 4.267-59.733 10.667-19.2 8.533-34.133 19.2-49.067 32s-25.6 29.867-32 49.067c-8.533 19.2-12.8 38.4-12.8 59.733s4.267 40.533 12.8 57.6c8.533 19.2 19.2 34.133 32 49.067 12.8 12.8 29.867 25.6 49.067 32 19.2 8.533 38.4 12.8 59.733 12.8v0zM258.133 593.067h426.667v-46.933h-426.667v46.933zM211.2 733.867h520.533v-236.8h-520.533v236.8zM115.2 162.133c0-23.467 21.333-44.8 46.933-44.8h437.333c-19.2 27.733-29.867 64-29.867 100.267 0 102.4 83.2 183.467 183.467 183.467 25.6 0 51.2-4.267 72.533-14.933v110.933h-46.933v332.8h-614.4v-330.667h-49.067v-337.067z" />
<glyph unicode="&#xe911;" glyph-name="ic_address_library" d="M804.267 422.4v0c-34.133 34.133-78.933 53.333-128 53.333s-93.867-19.2-125.867-51.2l-2.133-2.133c-32-32-51.2-76.8-51.2-125.867s19.2-93.867 51.2-125.867l128-128 128 128c32 32 51.2 76.8 51.2 125.867s-19.2 93.867-51.2 125.867zM676.267 245.333c-34.133 0-61.867 27.733-61.867 61.867 0 14.933 4.267 27.733 12.8 38.4 10.667 14.933 29.867 25.6 49.067 25.6 34.133 0 61.867-27.733 61.867-61.867 2.133-34.133-27.733-64-61.867-64zM283.733 693.333h394.667v-57.6h-394.667v57.6zM283.733 578.133h281.6v-57.6h-281.6v57.6zM283.733 460.8h192v-57.6h-192v57.6zM285.867 343.467h168.533v-57.6h-168.533v57.6zM458.667 151.467h-232.533v640h522.667v-290.133h59.733v352h-640v-759.467h290.133z" />
<glyph unicode="&#xe912;" glyph-name="ic_alarm" d="M512 840.533l-322.133-104.533 2.133-398.933v-4.267c0-2.133 12.8-66.133 74.667-128 46.933-46.933 164.267-108.8 215.467-134.4 8.533-4.267 12.8-6.4 17.067-8.533l12.8-6.4 14.933 6.4c29.867 14.933 177.067 87.467 232.533 142.933 61.867 61.867 74.667 123.733 74.667 128l2.133 403.2-324.267 104.533zM782.933 341.333c-2.133-8.533-14.933-55.467-61.867-100.267s-174.933-110.933-211.2-130.133c-2.133 0-4.267 2.133-6.4 4.267-44.8 23.467-160 85.333-202.667 125.867-44.8 44.8-57.6 89.6-61.867 100.267l-2.133 360.533 275.2 87.467 273.067-87.467-2.133-360.533zM652.8 480h-102.4l25.6 198.4-202.667-258.133h102.4l-25.6-198.4 202.667 258.133z" />
<glyph unicode="&#xe913;" glyph-name="ic_circle" d="M512 245.333c-113.067 0-202.667 91.733-202.667 202.667s91.733 202.667 202.667 202.667 202.667-91.733 202.667-202.667-89.6-202.667-202.667-202.667v0zM512 561.067c-61.867 0-113.067-51.2-113.067-113.067s51.2-113.067 113.067-113.067 113.067 51.2 113.067 113.067-51.2 113.067-113.067 113.067z" />
<glyph unicode="&#xe914;" glyph-name="ic_phonenum" d="M740.267 832h-460.8c-36.267 0-66.133-36.267-66.133-76.8v-76.8c21.333 0 40.533-21.333 40.533-46.933s-21.333-46.933-40.533-46.933v-91.733c21.333 0 40.533-21.333 40.533-46.933s-21.333-46.933-40.533-46.933v-91.733c25.6 0 40.533-21.333 40.533-46.933s-21.333-46.933-40.533-46.933v-76.8c0-40.533 29.867-76.8 72.533-76.8h456.533c40.533 0 72.533 36.267 72.533 76.8v618.667c-8.533 40.533-38.4 76.8-74.667 76.8zM725.333 273.067c0-10.667-10.667-21.333-21.333-21.333-200.533 0-362.667 164.267-362.667 362.667 0 10.667 10.667 21.333 21.333 21.333h76.8c10.667 0 21.333-10.667 21.333-21.333 0-25.6 4.267-51.2 10.667-76.8 0-4.267 0-14.933-4.267-21.333l-40.533-27.733c29.867-55.467 81.067-113.067 142.933-142.933l29.867 36.267c4.267 4.267 14.933 10.667 21.333 10.667 25.6-10.667 51.2-14.933 76.8-14.933 10.667 0 21.333-10.667 21.333-21.333 0 0 6.4-83.2 6.4-83.2z" />
<glyph unicode="&#xe915;" glyph-name="ic_GISconfig" d="M893.867 91.733l-87.467 87.467c-2.133 2.133-4.267 2.133-6.4 4.267 21.333 27.733 36.267 64 36.267 100.267 0 89.6-72.533 164.267-164.267 164.267s-164.267-72.533-164.267-164.267 72.533-164.267 164.267-164.267c38.4 0 72.533 12.8 100.267 36.267 0-2.133 2.133-4.267 4.267-6.4l87.467-87.467c8.533-8.533 21.333-8.533 27.733 0 10.667 8.533 10.667 23.467 2.133 29.867zM672 162.133c-68.267 0-121.6 55.467-121.6 121.6s55.467 121.6 121.6 121.6 121.6-55.467 121.6-121.6-53.333-121.6-121.6-121.6zM484.267 147.2c-17.067 12.8-42.667 57.6-61.867 128 4.267 0 8.533 2.133 12.8 2.133 0 4.267 0 6.4 0 10.667 0 12.8 2.133 25.6 2.133 36.267-8.533 0-17.067-2.133-25.6-4.267-6.4 36.267-10.667 76.8-10.667 123.733h96c17.067 19.2 38.4 34.133 59.733 46.933-40.533 0-155.733 0-155.733 0 2.133 46.933 4.267 87.467 10.667 123.733 25.6-4.267 53.333-6.4 81.067-6.4s55.467 2.133 81.067 6.4c6.4-32 8.533-70.4 10.667-110.933 14.933 6.4 29.867 8.533 46.933 10.667-2.133 38.4-6.4 74.667-12.8 108.8 42.667 12.8 83.2 29.867 119.467 55.467 44.8-51.2 72.533-117.333 76.8-187.733h-44.8c36.267-19.2 66.133-46.933 87.467-83.2 2.133 19.2 4.267 38.4 4.267 59.733 0 204.8-166.4 371.2-371.2 371.2s-366.933-166.4-366.933-371.2 166.4-371.2 371.2-371.2c12.8 0 27.733 0 40.533 2.133-19.2 12.8-36.267 29.867-51.2 49.067zM708.267 712.533c-29.867-17.067-61.867-32-96-42.667-10.667 46.933-25.6 85.333-44.8 113.067 53.333-10.667 102.4-36.267 140.8-70.4zM494.933 791.467c17.067 0 49.067-44.8 72.533-132.267-23.467-4.267-46.933-6.4-72.533-6.4s-49.067 2.133-72.533 6.4c23.467 87.467 55.467 132.267 72.533 132.267zM422.4 782.933c-17.067-27.733-32-68.267-44.8-113.067-34.133 10.667-66.133 25.6-96 42.667 40.533 34.133 89.6 59.733 140.8 70.4zM249.6 678.4c36.267-23.467 76.8-42.667 119.467-53.333-6.4-40.533-10.667-85.333-12.8-134.4h-183.467c4.267 70.4 32 136.533 76.8 187.733zM172.8 443.733h185.6c2.133-46.933 6.4-91.733 12.8-134.4-42.667-12.8-83.2-29.867-119.467-53.333-46.933 51.2-74.667 117.333-78.933 187.733zM283.733 221.867c29.867 17.067 61.867 32 96 42.667 10.667-46.933 25.6-85.333 44.8-113.067-53.333 10.667-102.4 36.267-140.8 70.4z" />
<glyph unicode="&#xe916;" glyph-name="ic_clientconfig" d="M738.133 354.133c4.267 6.4 10.667 8.533 17.067 6.4l12.8-4.267c6.4-2.133 12.8 2.133 14.933 8.533l6.4 17.067c2.133 6.4-2.133 12.8-6.4 14.933l-14.933 2.133c-6.4 2.133-10.667 8.533-8.533 14.933 0 0 0 4.267 0 12.8s0 12.8 0 12.8c0 6.4 4.267 12.8 8.533 14.933l12.8 4.267c6.4 2.133 8.533 8.533 6.4 14.933l-6.4 17.067c-2.133 6.4-8.533 8.533-14.933 8.533l-12.8-4.267c-6.4-2.133-12.8 0-17.067 6.4l-14.933 19.2c-4.267 4.267-4.267 12.8 0 17.067l8.533 10.667c4.267 4.267 2.133 12.8-2.133 17.067l-14.933 10.667c-4.267 4.267-12.8 2.133-17.067-2.133l-8.533-10.667c-4.267-4.267-10.667-6.4-17.067-4.267l-23.467 6.4c-6.4 2.133-10.667 8.533-10.667 14.933v12.8c0 6.4-4.267 10.667-10.667 10.667h-17.067c-6.4 0-10.667-4.267-10.667-10.667v-12.8c0-6.4-4.267-12.8-10.667-14.933l-25.6-10.667c-6.4-2.133-12.8 0-17.067 4.267l-8.533 10.667c-2.133 6.4-10.667 6.4-14.933 4.267l-14.933-10.667c-4.267-4.267-6.4-10.667-2.133-17.067l8.533-10.667c4.267-4.267 4.267-12.8 0-17.067l-14.933-19.2c-4.267-6.4-10.667-8.533-17.067-6.4l-12.8 4.267c-6.4 2.133-12.8-2.133-14.933-8.533l-6.4-17.067c-2.133-6.4 2.133-12.8 6.4-14.933l12.8-4.267c6.4-2.133 10.667-8.533 8.533-14.933 0 0 0-4.267 0-12.8s0-12.8 0-12.8c0-6.4-4.267-12.8-8.533-14.933l-12.8-4.267c-6.4-2.133-8.533-8.533-6.4-14.933l6.4-17.067c2.133-6.4 8.533-8.533 14.933-8.533l12.8 4.267c6.4 2.133 12.8 0 17.067-6.4l14.933-19.2c4.267-4.267 4.267-12.8 0-17.067l-8.533-10.667c-4.267-4.267-2.133-12.8 2.133-17.067l14.933-10.667c4.267-4.267 12.8-2.133 17.067 2.133l8.533 10.667c4.267 4.267 10.667 6.4 17.067 4.267l23.467-6.4c6.4-2.133 10.667-8.533 10.667-14.933v-12.8c0-6.4 4.267-10.667 10.667-10.667h17.067c6.4 0 10.667 4.267 10.667 10.667v12.8c0 6.4 4.267 12.8 10.667 14.933l23.467 6.4c6.4 2.133 12.8 0 17.067-4.267l8.533-10.667c4.267-4.267 10.667-6.4 17.067-2.133l14.933 10.667c4.267 4.267 6.4 10.667 2.133 17.067l-8.533 10.667c-4.267 4.267-4.267 12.8 0 17.067l17.067 23.467zM616.533 352c-42.667 0-74.667 34.133-74.667 74.667s34.133 74.667 74.667 74.667 74.667-34.133 74.667-74.667-32-74.667-74.667-74.667zM245.333 392.533h138.667v-61.867h-138.667v61.867zM245.333 522.667h138.667v-61.867h-138.667v61.867zM117.333 780.8v0 0-665.6h789.333v665.6h-789.333zM844.8 183.467h-665.6v507.733h665.6v-507.733z" />
<glyph unicode="&#xe917;" glyph-name="ic_alarmrole" d="M317.867 763.733h546.133v-104.533h-546.133v104.533zM91.733 763.733h106.667v-104.533h-106.667v104.533zM91.733 537.6h106.667v-104.533h-106.667v104.533zM91.733 313.6h106.667v-104.533h-106.667v104.533zM317.867 313.6h162.133v-104.533h-162.133v104.533zM317.867 537.6h189.867v-104.533h-189.867v104.533zM753.067 132.267l8.533 21.333-29.867 49.067 23.467 21.333c6.4 6.4 6.4 17.067 0 21.333h-68.267c-6.4-6.4-6.4-17.067 0-21.333l23.467-21.333-27.733-49.067 14.933-21.333c-98.133 4.267-174.933 38.4-174.933 74.667 0 55.467 53.333 72.533 130.133 74.667 10.667 17.067 21.333 38.4 17.067 57.6-21.333 17.067-38.4 42.667-44.8 72.533-2.133 0-2.133 0-4.267 0-8.533 0-17.067 6.4-17.067 17.067v29.867c0 8.533 6.4 14.933 17.067 17.067 6.4 70.4 53.333 123.733 113.067 123.733 57.6 0 104.533-53.333 113.067-125.867 2.133 0 2.133 0 4.267 0 8.533 0 17.067-6.4 17.067-17.067v-29.867c0-8.533-6.4-17.067-17.067-17.067-4.267 0-6.4 2.133-8.533 2.133-8.533-38.4-29.867-68.267-57.6-83.2-2.133-17.067 6.4-34.133 17.067-49.067 78.933-2.133 136.533-17.067 136.533-74.667-10.667-36.267-87.467-66.133-185.6-72.533v0z" />
<glyph unicode="&#xe918;" glyph-name="endpage" d="M829.867 42.667h-115.2v810.667h115.2c0 0 0-810.667 0-810.667zM194.133 851.2v-808.533l405.333 405.333-405.333 403.2z" />
<glyph unicode="&#xe919;" glyph-name="firstpage" d="M194.133 853.333h115.2v-810.667h-115.2c0 0 0 810.667 0 810.667zM426.667 448l405.333-405.333v808.533l-405.333-403.2z" />
<glyph unicode="&#xe91a;" glyph-name="lastpage" d="M330.667 448l405.333-403.2v806.4z" />
<glyph unicode="&#xe91b;" glyph-name="nextpage" d="M330.667 851.2v-806.4l405.333 403.2z" />
<glyph unicode="&#xe91c;" glyph-name="more2" d="M825.6 356.267c-51.2 0-91.733 40.533-91.733 91.733s40.533 91.733 91.733 91.733c51.2 0 91.733-40.533 91.733-91.733s-40.533-91.733-91.733-91.733zM533.333 356.267c-51.2 0-91.733 40.533-91.733 91.733s40.533 91.733 91.733 91.733 91.733-40.533 91.733-91.733c0-51.2-42.667-91.733-91.733-91.733zM241.067 356.267c-51.2 0-91.733 40.533-91.733 91.733s40.533 91.733 91.733 91.733c51.2 0 91.733-40.533 91.733-91.733-2.133-51.2-42.667-91.733-91.733-91.733z" />
<glyph unicode="&#xe91d;" glyph-name="add" d="M512 842.667c-217.6 0-394.667-177.067-394.667-394.667s177.067-394.667 394.667-394.667 394.667 177.067 394.667 394.667c0 217.6-177.067 394.667-394.667 394.667zM512 128c-177.067 0-320 142.933-320 320s142.933 320 320 320 320-142.933 320-320c0-177.067-142.933-320-320-320zM548.267 631.467c0 4.267-2.133 6.4-4.267 8.533s-6.4 4.267-8.533 4.267h-46.933c-4.267 0-6.4-2.133-8.533-4.267s-4.267-6.4-4.267-8.533v-147.2h-147.2c-4.267 0-6.4-2.133-8.533-4.267s-4.267-6.4-4.267-8.533v-46.933c0-4.267 2.133-6.4 4.267-8.533s6.4-4.267 8.533-4.267h147.2v-147.2c0-4.267 2.133-6.4 4.267-8.533s6.4-4.267 8.533-4.267h46.933c4.267 0 6.4 2.133 8.533 4.267s4.267 6.4 4.267 8.533v147.2h147.2c4.267 0 6.4 2.133 8.533 4.267s4.267 6.4 4.267 8.533v46.933c0 4.267-2.133 6.4-4.267 8.533s-6.4 4.267-8.533 4.267h-147.2v147.2z" />
<glyph unicode="&#xe91e;" glyph-name="ic_alarmconfig" d="M317.867 744.533h546.133v-104.533h-546.133v104.533zM91.733 744.533h106.667v-104.533h-106.667v104.533zM91.733 518.4h106.667v-104.533h-106.667v104.533zM91.733 294.4h106.667v-104.533h-106.667v104.533zM889.6 258.133c4.267 6.4 12.8 10.667 21.333 8.533l14.933-4.267c8.533-2.133 14.933 2.133 17.067 8.533l6.4 21.333c2.133 6.4-2.133 14.933-8.533 17.067l-14.933 4.267c-8.533 2.133-12.8 10.667-12.8 19.2 0 0 0 4.267 0 14.933s0 14.933 0 14.933c0 8.533 4.267 17.067 12.8 19.2l14.933 4.267c8.533 2.133 10.667 10.667 8.533 17.067l-6.4 21.333c-2.133 6.4-10.667 10.667-17.067 8.533l-14.933-4.267c-8.533-2.133-17.067 2.133-21.333 8.533l-17.067 23.467c-4.267 6.4-6.4 14.933 0 21.333l8.533 12.8c4.267 6.4 4.267 14.933-2.133 19.2l-17.067 12.8c-6.4 4.267-14.933 2.133-19.2-2.133l-12.8-12.8c-4.267-6.4-14.933-8.533-21.333-6.4l-29.867 8.533c-8.533 2.133-14.933 10.667-14.933 17.067v14.933c0 8.533-6.4 14.933-14.933 14.933h-21.333c-8.533 0-14.933-6.4-14.933-14.933v-14.933c0-8.533-6.4-14.933-14.933-17.067l-29.867-8.533c-6.4-2.133-17.067 0-21.333 6.4l-8.533 12.8c-4.267 6.4-12.8 8.533-19.2 2.133l-17.067-12.8c-6.4-4.267-8.533-12.8-2.133-19.2l8.533-12.8c4.267-6.4 4.267-17.067 0-21.333l-17.067-23.467c-4.267-6.4-12.8-10.667-21.333-8.533l-14.933 4.267c-8.533 2.133-14.933-2.133-17.067-8.533l-6.4-21.333c-2.133-6.4 2.133-14.933 8.533-17.067l14.933-4.267c8.533-2.133 12.8-10.667 12.8-19.2 0 0 0-4.267 0-14.933s0-14.933 0-14.933c0-8.533-4.267-17.067-12.8-19.2l-14.933-4.267c-8.533-2.133-10.667-10.667-8.533-17.067l6.4-21.333c2.133-6.4 10.667-10.667 17.067-8.533l14.933 4.267c8.533 2.133 17.067-2.133 21.333-8.533l17.067-23.467c4.267-6.4 6.4-14.933 0-21.333l-8.533-12.8c-4.267-6.4-4.267-14.933 2.133-19.2l17.067-12.8c6.4-4.267 14.933-2.133 19.2 2.133l8.533 12.8c4.267 6.4 14.933 8.533 21.333 6.4l29.867-8.533c8.533-2.133 14.933-10.667 14.933-17.067v-14.933c0-8.533 6.4-14.933 14.933-14.933h21.333c8.533 0 14.933 6.4 14.933 14.933v14.933c0 8.533 6.4 14.933 14.933 17.067l29.867 8.533c6.4 2.133 17.067 0 21.333-6.4l8.533-12.8c4.267-6.4 12.8-8.533 19.2-2.133l17.067 12.8c6.4 4.267 8.533 12.8 2.133 19.2l-8.533 12.8c-4.267 6.4-4.267 17.067 0 21.333l21.333 23.467zM740.267 253.867c-51.2 0-93.867 40.533-93.867 91.733s42.667 91.733 93.867 91.733c51.2 0 93.867-40.533 93.867-91.733s-42.667-91.733-93.867-91.733zM317.867 294.4h168.533v-104.533h-168.533v104.533zM317.867 518.4h168.533v-104.533h-168.533v104.533z" />
<glyph unicode="&#xe91f;" glyph-name="ic_config" d="M878.933 170.667l-172.8 170.667c0 0-4.267 4.267-4.267 6.4 0 6.4 0 8.533 2.133 12.8 6.4 17.067 10.667 36.267 10.667 55.467 0 87.467-70.4 157.867-155.733 157.867-12.8 0-23.467-2.133-34.133-4.267-2.133 0-2.133 0-4.267-2.133 0-2.133 0-4.267 0-4.267l66.133-66.133c25.6-29.867 17.067-76.8-4.267-98.133l-6.4-6.4c-21.333-21.333-66.133-34.133-98.133-8.533l-68.267 68.267c0 0-2.133 2.133-2.133 0-2.133 0-2.133-2.133-2.133-4.267-2.133-10.667-4.267-21.333-4.267-34.133 0-87.467 70.4-157.867 155.733-157.867 19.2 0 36.267 4.267 53.333 8.533 4.267 2.133 6.4 0 12.8 2.133 6.4 0 10.667-2.133 10.667-2.133l172.8-170.667c21.333-21.333 55.467-23.467 76.8-2.133 19.2 23.467 17.067 57.6-4.267 78.933zM838.4 110.933c-12.8 0-25.6 10.667-25.6 25.6 0 12.8 10.667 25.6 25.6 25.6 12.8 0 25.6-10.667 25.6-25.6s-10.667-25.6-25.6-25.6zM262.4 533.333c8.533-4.267 17.067-8.533 25.6-12.8 0 0 0 2.133 0 2.133 34.133 98.133 121.6 164.267 217.6 177.067-2.133 21.333 0 44.8 6.4 64 0 0 0 2.133 0 2.133-125.867-10.667-243.2-93.867-288-221.867 0-2.133 0-4.267-2.133-4.267 17.067 0 29.867-2.133 40.533-6.4zM772.267 672c-6.4-21.333-19.2-38.4-36.267-53.333 68.267-70.4 93.867-177.067 57.6-277.333 0 0 0-2.133 0-2.133 6.4-2.133 14.933-4.267 21.333-6.4 12.8-4.267 25.6-12.8 38.4-21.333 0 2.133 2.133 4.267 2.133 6.4 44.8 128 8.533 266.667-83.2 356.267 0 0 0 0 0-2.133zM635.733 179.2c-59.733-21.333-123.733-23.467-183.467-2.133-64 23.467-113.067 68.267-142.933 123.733-17.067-14.933-36.267-25.6-57.6-32 38.4-70.4 100.267-125.867 179.2-153.6s162.133-25.6 232.533 4.267c-12.8 17.067-23.467 38.4-27.733 59.733zM736 680.533c-19.2-53.333-76.8-78.933-128-61.867-51.2 19.2-78.933 76.8-59.733 128 19.2 53.333 76.8 78.933 128 61.867s78.933-74.667 59.733-128zM322.133 373.333c-19.2-53.333-76.8-78.933-128-61.867-51.2 19.2-78.933 76.8-59.733 130.133s76.8 78.933 128 61.867c51.2-19.2 78.933-76.8 59.733-130.133z" />
<glyph unicode="&#xe920;" glyph-name="ic_speakingright" d="M814.933 827.733h-605.867c-42.667 0-76.8-34.133-76.8-76.8v-682.667l151.467 151.467h531.2c42.667 0 76.8 34.133 76.8 76.8v454.4c0 42.667-34.133 76.8-76.8 76.8zM810.667 369.067c0-32-25.6-59.733-59.733-59.733h-477.867c-32 0-59.733 25.6-59.733 59.733v320c0 32 25.6 59.733 59.733 59.733h480c32 0 59.733-25.6 59.733-59.733v-320zM298.667 646.4h422.4v-78.933h-422.4v78.933zM298.667 486.4h326.4v-78.933h-326.4v78.933z" />
<glyph unicode="&#xe921;" glyph-name="ic_floorconfig" d="M887.467 134.4c4.267 6.4 10.667 8.533 17.067 6.4l12.8-4.267c6.4-2.133 12.8 2.133 14.933 8.533l6.4 17.067c2.133 6.4-2.133 12.8-8.533 14.933l-12.8 4.267c-6.4 2.133-10.667 8.533-10.667 14.933 0 0 0 4.267 0 12.8s0 12.8 0 12.8c0 6.4 4.267 12.8 10.667 14.933l12.8 4.267c6.4 2.133 10.667 8.533 8.533 14.933l-6.4 17.067c-2.133 6.4-8.533 10.667-14.933 8.533l-12.8-4.267c-6.4-2.133-14.933 0-17.067 6.4l-14.933 21.333c-4.267 4.267-4.267 12.8 0 19.2l8.533 10.667c4.267 6.4 2.133 12.8-2.133 17.067l-14.933 10.667c-6.4 4.267-12.8 2.133-17.067-2.133l-8.533-10.667c-4.267-6.4-12.8-8.533-19.2-4.267l-25.6 8.533c-6.4 2.133-12.8 8.533-12.8 14.933v12.8c0 6.4-6.4 12.8-12.8 12.8h-19.2c-6.4 0-12.8-6.4-12.8-12.8v-12.8c0-6.4-6.4-12.8-12.8-14.933l-25.6-8.533c-6.4-2.133-14.933 0-19.2 4.267l-8.533 10.667c-4.267 6.4-10.667 6.4-17.067 2.133l-14.933-10.667c-6.4-4.267-6.4-10.667-2.133-17.067l8.533-10.667c4.267-6.4 4.267-14.933 0-19.2l-14.933-21.333c-4.267-6.4-10.667-8.533-17.067-6.4l-12.8 4.267c-6.4 2.133-12.8-2.133-14.933-8.533l-6.4-17.067c-2.133-6.4 2.133-12.8 8.533-14.933l12.8-4.267c6.4-2.133 10.667-8.533 10.667-14.933 0 0 0-4.267 0-12.8s0-12.8 0-12.8c0-6.4-4.267-12.8-10.667-14.933l-12.8-4.267c-6.4-2.133-10.667-8.533-8.533-14.933l6.4-17.067c2.133-6.4 8.533-10.667 14.933-8.533l12.8 4.267c6.4 2.133 14.933 0 17.067-6.4l14.933-21.333c4.267-4.267 4.267-12.8 0-19.2l-8.533-10.667c-4.267-6.4-2.133-12.8 2.133-17.067l14.933-10.667c6.4-4.267 12.8-2.133 17.067 2.133l8.533 10.667c4.267 6.4 12.8 8.533 19.2 4.267l25.6-8.533c6.4-2.133 12.8-8.533 12.8-14.933v-12.8c0-6.4 6.4-12.8 12.8-12.8h19.2c6.4 0 12.8 6.4 12.8 12.8v12.8c0 6.4 6.4 12.8 12.8 14.933l25.6 8.533c6.4 2.133 14.933 0 19.2-4.267l8.533-10.667c4.267-6.4 10.667-6.4 17.067-2.133l14.933 10.667c6.4 4.267 6.4 10.667 2.133 17.067l-8.533 10.667c-4.267 6.4-4.267 14.933 0 19.2l14.933 21.333zM761.6 132.267c-44.8 0-78.933 34.133-78.933 78.933 0 42.667 36.267 78.933 78.933 78.933s78.933-34.133 78.933-78.933c0-44.8-36.267-78.933-78.933-78.933zM147.2 812.8v-731.733h411.733v57.6h-123.733v153.6h108.8c0 0 0 2.133 0 2.133l6.4 19.2c2.133 6.4 10.667 10.667 17.067 8.533l14.933-4.267c6.4-2.133 14.933 0 19.2 6.4l17.067 23.467c4.267 6.4 4.267 14.933 0 21.333l-8.533 10.667c-4.267 6.4-2.133 14.933 2.133 19.2l17.067 12.8c6.4 4.267 14.933 2.133 19.2-2.133l8.533-10.667c2.133-2.133 4.267-4.267 8.533-6.4v132.267h153.6v-119.467h59.733v407.467h-731.733zM358.4 157.867v0-17.067h-153.6v153.6h153.6v-136.533zM358.4 369.067h-153.6v153.6h153.6v-153.6zM358.4 599.467v0h-153.6v153.6h153.6v-153.6zM588.8 369.067h-153.6v153.6h153.6v-153.6zM588.8 599.467h-153.6v153.6h153.6v-153.6zM817.067 599.467h-153.6v153.6h153.6v-153.6z" />
<glyph unicode="&#xe922;" glyph-name="ic_roletype" d="M706.133 57.6l12.8 29.867-42.667 68.267 32 29.867c10.667 10.667 10.667 23.467 0 29.867h-93.867c-10.667-10.667-10.667-23.467 0-29.867l32-29.867-38.4-70.4 19.2-29.867c-136.533 6.4-243.2 51.2-243.2 102.4 0 76.8 74.667 100.267 181.333 102.4 17.067 23.467 29.867 51.2 23.467 81.067-29.867 23.467-51.2 57.6-61.867 100.267-4.267 0-4.267 0-6.4 0-12.8 0-23.467 10.667-23.467 23.467v42.667c0 12.8 10.667 19.2 23.467 23.467 10.667 96 74.667 170.667 155.733 170.667s145.067-74.667 155.733-174.933c4.267 0 4.267 0 6.4 0 12.8 0 23.467-10.667 23.467-23.467v-42.667c0-12.8-10.667-23.467-23.467-23.467-6.4 0-10.667 4.267-12.8 4.267-12.8-51.2-42.667-93.867-81.067-117.333-4.267-23.467 10.667-49.067 23.467-68.267 110.933-4.267 187.733-23.467 187.733-102.4-8.533-49.067-115.2-89.6-249.6-96v0zM262.4 403.2c-8.533 6.4-8.533 17.067 0 23.467h78.933c8.533-6.4 8.533-17.067 0-23.467l-27.733-23.467 36.267-57.6-10.667-23.467c29.867 2.133 57.6 4.267 83.2 10.667 25.6 51.2 44.8 113.067 53.333 151.467-23.467 6.4-53.333 8.533-85.333 8.533-10.667 17.067-21.333 38.4-19.2 57.6 32 19.2 57.6 53.333 68.267 98.133 2.133 0 6.4-2.133 10.667-2.133 10.667 0 19.2 8.533 19.2 19.2v36.267c0 10.667-8.533 19.2-19.2 19.2-2.133 0-2.133 0-6.4 0-8.533 83.2-61.867 147.2-130.133 147.2s-121.6-68.267-130.133-149.333c-10.667-2.133-19.2-8.533-19.2-19.2v-36.267c0-10.667 8.533-19.2 19.2-19.2 2.133 0 2.133 0 6.4 0 8.533-36.267 27.733-66.133 51.2-83.2 6.4-23.467-6.4-49.067-19.2-68.267-89.6-2.133-151.467-21.333-151.467-87.467 0-42.667 89.6-81.067 202.667-87.467l-17.067 25.6 32 57.6-25.6 25.6z" />
<glyph unicode="&#xe923;" glyph-name="ic_seatconfig" d="M147.2 812.8v-731.733h729.6v731.733h-729.6zM665.6 753.067h153.6v-153.6h-153.6v153.6zM665.6 522.667h153.6v-153.6h-153.6v153.6zM663.467 294.4h153.6v-153.6h-153.6v153.6zM435.2 753.067h153.6v-153.6h-153.6v153.6zM435.2 522.667h153.6v-153.6h-153.6v153.6zM435.2 294.4h153.6v-153.6h-153.6v153.6zM204.8 753.067h153.6v-153.6h-153.6v153.6zM204.8 522.667h153.6v-153.6h-153.6v153.6zM358.4 294.4v-153.6h-153.6v153.6h153.6z" />
<glyph unicode="&#xe924;" glyph-name="ic_sysuser" d="M571.733 72.533l10.667 14.933c6.4 8.533 4.267 19.2-2.133 25.6l-21.333 27.733c-4.267 8.533-17.067 12.8-25.6 8.533l-17.067-6.4c-8.533-2.133-19.2 2.133-21.333 10.667l-8.533 25.6c-2.133 8.533 2.133 19.2 10.667 21.333l17.067 6.4c8.533 2.133 14.933 12.8 14.933 21.333 0 0 0 6.4 0 17.067 0 12.8 0 17.067 0 17.067 2.133 8.533-4.267 19.2-14.933 21.333l-17.067 6.4c-8.533 2.133-12.8 12.8-10.667 21.333l8.533 25.6c2.133 8.533 12.8 12.8 21.333 10.667l17.067-6.4c8.533-2.133 19.2 2.133 25.6 8.533l21.333 27.733c6.4 6.4 6.4 19.2 2.133 25.6l-10.667 14.933c-6.4 8.533-4.267 19.2 4.267 23.467l21.333 14.933c8.533 6.4 19.2 4.267 23.467-4.267l10.667-14.933c6.4-8.533 17.067-10.667 25.6-6.4l34.133 10.667c8.533 2.133 17.067 10.667 17.067 21.333v19.2c0 8.533 8.533 17.067 17.067 17.067h25.6c8.533 0 17.067-8.533 17.067-17.067v-12.8c0-8.533 6.4-19.2 17.067-21.333l34.133-10.667c8.533-4.267 19.2 0 25.6 6.4l10.667 14.933c6.4 8.533 17.067 8.533 23.467 4.267l6.4-4.267v309.333c0 29.867-25.6 55.467-55.467 55.467h-369.067c0-4.267 2.133-6.4 2.133-10.667v-343.467l-102.4 98.133-102.4-98.133v343.467c0 4.267 0 8.533 2.133 10.667h-68.267c-32 0-55.467-23.467-55.467-55.467v-640c0-29.867 25.6-55.467 55.467-55.467h379.733c0 0 0 0 0 0zM881.067 157.867c4.267 6.4 10.667 8.533 17.067 6.4l12.8-4.267c6.4-2.133 12.8 2.133 14.933 8.533l6.4 17.067c2.133 6.4-2.133 12.8-8.533 14.933l-12.8 4.267c-6.4 2.133-10.667 8.533-10.667 14.933 0 0 0 4.267 0 12.8s0 12.8 0 12.8c0 6.4 4.267 12.8 10.667 14.933l12.8 4.267c6.4 2.133 10.667 8.533 8.533 14.933l-4.267 19.2c-2.133 6.4-8.533 10.667-14.933 8.533l-12.8-4.267c-6.4-2.133-14.933 0-17.067 6.4l-14.933 21.333c-4.267 4.267-4.267 12.8 0 19.2l8.533 10.667c4.267 6.4 2.133 12.8-2.133 17.067l-14.933 10.667c-6.4 4.267-12.8 2.133-17.067-2.133l-8.533-10.667c-4.267-6.4-12.8-8.533-19.2-4.267l-25.6 8.533c-6.4 2.133-12.8 8.533-12.8 14.933v10.667c0 6.4-6.4 12.8-12.8 12.8h-19.2c-6.4 0-12.8-6.4-12.8-12.8v-12.8c0-6.4-6.4-12.8-12.8-14.933l-25.6-8.533c-6.4-2.133-14.933 0-19.2 4.267l-4.267 10.667c-4.267 6.4-10.667 6.4-17.067 2.133l-14.933-10.667c-6.4-4.267-6.4-10.667-2.133-17.067l8.533-10.667c4.267-6.4 4.267-14.933 0-19.2l-14.933-21.333c-4.267-6.4-10.667-8.533-17.067-6.4l-12.8 4.267c-6.4 2.133-12.8-2.133-14.933-8.533l-6.4-17.067c-2.133-6.4 2.133-12.8 8.533-14.933l12.8-4.267c6.4-2.133 10.667-8.533 10.667-14.933 0 0 0-4.267 0-12.8s0-12.8 0-12.8c0-6.4-4.267-12.8-10.667-14.933l-12.8-4.267c-6.4-2.133-10.667-8.533-8.533-14.933l6.4-17.067c2.133-6.4 8.533-10.667 14.933-8.533l12.8 4.267c6.4 2.133 14.933 0 17.067-6.4l14.933-21.333c4.267-4.267 4.267-12.8 0-19.2l-10.667-10.667c-4.267-6.4-2.133-12.8 2.133-17.067l14.933-10.667c6.4-4.267 12.8-2.133 17.067 2.133l8.533 10.667c4.267 6.4 12.8 8.533 19.2 4.267l25.6-8.533c6.4-2.133 12.8-8.533 12.8-14.933v-12.8c0-6.4 6.4-12.8 12.8-12.8h19.2c6.4 0 12.8 6.4 12.8 12.8v12.8c0 6.4 6.4 12.8 12.8 14.933l25.6 8.533c6.4 2.133 14.933 0 19.2-4.267l8.533-10.667c4.267-6.4 10.667-6.4 17.067-2.133l14.933 10.667c6.4 4.267 6.4 10.667 2.133 17.067l-8.533 10.667c-4.267 6.4-4.267 14.933 0 19.2l10.667 21.333zM755.2 155.733c-44.8 0-78.933 34.133-78.933 78.933s36.267 78.933 78.933 78.933 78.933-34.133 78.933-78.933c0-44.8-36.267-78.933-78.933-78.933z" />
<glyph unicode="&#xe925;" glyph-name="ic_todispatch" d="M369.067 646.4h394.667v-57.6h-394.667v57.6zM567.467 531.2h196.267v-57.6h-196.267v57.6zM571.733 413.867h192v-57.6h-192v57.6zM369.067 296.533h392.533v-57.6h-392.533v57.6zM298.667 765.867h522.667v-640h-509.867v-57.6h567.467v759.467h-580.267zM281.6 477.867h230.4v-57.6h-230.4v57.6zM145.067 450.133l153.6 157.867v-317.867l-153.6 160z" />
<glyph unicode="&#xe926;" glyph-name="del" d="M232.533 727.467c-153.6-153.6-153.6-403.2 0-558.933 153.6-153.6 403.2-153.6 558.933 0s153.6 403.2 0 558.933c-153.6 153.6-405.333 153.6-558.933 0zM738.133 221.867c-125.867-125.867-328.533-125.867-454.4 0s-125.867 328.533 0 454.4 328.533 125.867 454.4 0c125.867-125.867 125.867-330.667 0-454.4zM407.467 603.733c-2.133 2.133-6.4 4.267-8.533 4.267-4.267 0-6.4-2.133-8.533-4.267l-34.133-34.133c-2.133-2.133-4.267-6.4-4.267-8.533 0-4.267 2.133-6.4 4.267-8.533l104.533-104.533-104.533-104.533c-2.133-2.133-4.267-6.4-4.267-8.533 0-4.267 2.133-6.4 4.267-8.533l34.133-34.133c2.133-2.133 6.4-4.267 8.533-4.267 4.267 0 6.4 2.133 8.533 4.267l104.533 104.533 104.533-104.533c2.133-2.133 6.4-4.267 8.533-4.267 4.267 0 6.4 2.133 8.533 4.267l34.133 34.133c2.133 2.133 4.267 6.4 4.267 8.533 0 4.267-2.133 6.4-4.267 8.533l-104.533 104.533 104.533 104.533c2.133 2.133 4.267 6.4 4.267 8.533 0 4.267-2.133 6.4-4.267 8.533l-34.133 34.133c-2.133 2.133-6.4 4.267-8.533 4.267-4.267 0-6.4-2.133-8.533-4.267l-104.533-104.533-104.533 104.533z" />
<glyph unicode="&#xe927;" glyph-name="edit" d="M149.333 85.333l185.6 57.6 430.933 430.933-128 128-430.933-430.933-57.6-185.6zM733.867 797.867l-53.333-53.333 128-128 53.333 53.333c17.067 17.067 17.067 46.933 0 64l-64 64c-17.067 17.067-46.933 17.067-64 0v0z" />
<glyph unicode="&#xe928;" glyph-name="empty" d="M861.867 761.6h-296.533v36.267c0 19.2-14.933 34.133-34.133 34.133h-34.133c-19.2 0-34.133-14.933-34.133-34.133v-34.133h-300.8c-19.2-2.133-34.133-17.067-34.133-36.267s14.933-34.133 34.133-34.133h53.333v-558.933c0-38.4 32-70.4 70.4-70.4h454.4c38.4 0 70.4 32 70.4 70.4v558.933h53.333c19.2 0 34.133 14.933 34.133 34.133s-17.067 34.133-36.267 34.133zM738.133 168.533c0-19.2-14.933-34.133-34.133-34.133h-384c-19.2 0-34.133 14.933-34.133 34.133v524.8h454.4l-2.133-524.8zM424.533 217.6c19.2 0 34.133 14.933 34.133 34.133v322.133c0 19.2-14.933 34.133-34.133 34.133s-34.133-14.933-34.133-34.133v-322.133c0-19.2 14.933-34.133 34.133-34.133zM633.6 251.733v322.133c0 19.2-14.933 34.133-34.133 34.133s-34.133-14.933-34.133-34.133v-322.133c0-19.2 14.933-34.133 34.133-34.133s34.133 14.933 34.133 34.133z" />
<glyph unicode="&#xe929;" glyph-name="more" d="M603.733 750.933c0 51.2-40.533 91.733-91.733 91.733s-91.733-40.533-91.733-91.733 42.667-91.733 91.733-91.733 91.733 40.533 91.733 91.733zM603.733 456.533c0 51.2-40.533 91.733-91.733 91.733s-91.733-40.533-91.733-91.733 40.533-91.733 91.733-91.733c51.2 0 91.733 40.533 91.733 91.733zM603.733 145.067c0 51.2-40.533 91.733-91.733 91.733s-91.733-40.533-91.733-91.733c0-51.2 42.667-91.733 91.733-91.733s91.733 40.533 91.733 91.733z" />
<glyph unicode="&#xe92a;" glyph-name="resource1" d="M452.384 195.392l-111.584-64.448-111.616 64.448v128.768l111.616 64.384 111.584-64.384v-128.768zM486.912 368.928l-124.544 71.904c-13.12 7.616-30.144 7.584-43.104 0l-124.448-71.904c-13.312-7.648-21.568-22.016-21.568-37.312v-143.808c0-15.392 8.256-29.728 21.568-37.344l124.448-71.808c6.528-3.776 13.984-5.824 21.6-5.824 7.552 0 15.040 2.016 21.504 5.824l124.544 71.872c13.28 7.68 21.568 21.952 21.632 37.376v143.744c0 15.296-8.288 29.6-21.632 37.28v0zM639.648 530.048l-111.584-64.384-111.584 64.384v128.768l111.584 64.416 111.584-64.416v-128.768zM695.808 522.528v143.808c0 15.296-8.32 29.6-21.632 37.312l-124.576 71.904c-13.12 7.584-30.144 7.552-43.136 0l-124.448-71.904c-13.312-7.68-21.568-22.016-21.568-37.376v-143.776c0-15.424 8.256-29.728 21.568-37.344l124.448-71.84c6.56-3.808 14.016-5.792 21.568-5.792 7.616 0 15.072 1.984 21.568 5.792l124.576 71.872c13.248 7.712 21.568 21.984 21.632 37.344v0zM831.2 192.96l-115.744-66.816-115.776 66.816v133.536l115.776 66.848 115.744-66.848v-133.536zM859.392 365.344l-124.512 71.904c-12.064 6.944-27.008 6.944-38.944 0l-124.544-71.904c-12.064-6.976-19.488-19.84-19.488-33.792v-143.744c0-13.856 7.424-26.816 19.488-33.76l124.448-71.776c12.032-6.976 26.976-6.976 38.976 0l124.512 71.904c12.064 6.912 19.52 19.808 19.52 33.728v143.744c0.096 13.856-7.424 26.72-19.456 33.696v0z" />
<glyph unicode="&#xe92b;" glyph-name="resource2" d="M449.92 368.928l-124.544 71.904c-13.12 7.616-30.144 7.584-43.104 0l-124.448-71.904c-13.312-7.648-21.568-22.016-21.568-37.312v-143.808c0-15.392 8.256-29.728 21.568-37.344l124.448-71.808c6.528-3.776 13.984-5.824 21.6-5.824 7.552 0 15.040 2.016 21.504 5.824l124.544 71.872c13.28 7.68 21.568 21.952 21.632 37.376v143.744c-0.032 15.296-8.288 29.6-21.632 37.28v0zM663.808 554.528v143.808c0 15.296-8.32 29.6-21.632 37.312l-124.576 71.904c-13.12 7.584-30.144 7.552-43.136 0l-124.448-71.904c-13.312-7.68-21.568-22.016-21.568-37.376v-143.776c0-15.424 8.256-29.728 21.568-37.344l124.448-71.84c6.56-3.808 14.016-5.792 21.568-5.792 7.616 0 15.072 1.984 21.568 5.792l124.576 71.872c13.248 7.712 21.568 21.984 21.632 37.344v0zM859.392 365.344l-124.512 71.904c-12.064 6.944-27.008 6.944-38.944 0l-124.544-71.904c-12.064-6.976-19.488-19.84-19.488-33.792v-143.744c0-13.856 7.424-26.816 19.488-33.76l124.448-71.776c12.032-6.976 26.976-6.976 38.976 0l124.512 71.904c12.064 6.912 19.52 19.808 19.52 33.728v143.744c0.096 13.856-7.424 26.72-19.456 33.696v0z" />
<glyph unicode="&#xe92c;" glyph-name="resource" d="M883.52 645.792v-354.656c0-10.784-2.72-20.736-8.288-30.016-5.568-9.216-13.12-16.48-22.592-21.696l-325.088-177.344c-8.64-4.896-18.016-7.36-28.192-7.36-10.144 0-19.552 2.464-28.16 7.36l-325.056 177.376c-9.536 5.216-17.12 12.48-22.624 21.696-5.536 9.248-8.32 19.232-8.32 30.016v354.624c0 12.32 3.52 23.552 10.624 33.696 7.072 10.176 16.448 17.376 28.16 21.696l325.088 118.208c6.752 2.464 13.536 3.68 20.32 3.68s13.568-1.216 20.32-3.68l325.088-118.208c11.648-4.32 21.12-11.52 28.192-21.696 7.008-10.144 10.528-21.376 10.528-33.696v0zM499.36 529.408l322.304 117.312-322.304 117.28-322.272-117.28 322.272-117.312zM528.928 129.984l295.488 161.152v293.696l-295.488-107.584v-347.264z" />
<glyph unicode="&#xe92d;" glyph-name="case-even" d="M647.328 787.168h-288.352l-204.32-204.32v-288.704l204.32-204.32h288.704l204.352 204.32v288.704l-204.704 204.32zM530.656 253.472c-7.552-6.752-16.736-10.368-27.104-10.368-10.336 0-19.52 3.616-27.456 10.368-7.968 6.784-11.968 16.384-11.968 28.672 0 10.752 3.584 19.936 11.136 27.52 7.584 7.552 16.736 11.136 27.52 11.136 10.72 0 19.904-3.552 27.872-11.136 7.552-7.584 11.552-16.768 11.552-27.52 0-12.288-4-21.888-11.552-28.672v0zM540.64 540.256l-11.168-127.456c-1.216-15.104-3.584-26.688-7.584-35.040-4-7.968-10.368-11.968-19.52-11.968s-15.936 4-19.52 11.552c-3.552 7.968-6.368 19.904-7.584 35.872l-8.352 123.872c-1.6 23.872-2.4 41.376-2.4 51.744 0 14.336 3.584 25.504 11.168 33.44 7.584 8 17.504 11.968 29.472 11.968 14.72 0 24.672-5.184 29.856-15.52s7.552-25.088 7.552-44.224c-0.352-11.136-0.768-22.688-1.92-34.24v0z" />
<glyph unicode="&#xe92e;" glyph-name="conference" d="M361.312 533.344h277.312v-70.752h-277.312v70.752zM361.312 651.328h277.312v-70.816h-277.312v70.816zM361.312 415.328h158.56v-70.752h-158.56v70.752zM853.952 302.56c-24.16 40.256-23.776 40.992-23.776 40.992s-83.36-23.36-98.912 56.576h-48.32c0 0-13.312-80.064-98.496-56.384-24.64-41.056-25.472-42.368-25.504-42.368 0.032 0 66.688-46.56 0-109.824l25.888-42.56c0 0 73.664 31.808 97.76-55.008h48.864c0 0 15.328 79.744 98.144 56.192 23.584 40.256 23.968 40.64 23.968 40.64s-62.528 53.856 0.384 111.744v0zM706.016 190.752c-31.104 0-56.352 25.184-56.352 56.32s25.248 56.384 56.352 56.384c31.136 0 56.384-25.248 56.384-56.384s-25.248-56.32-56.384-56.32v0zM310.912 164.448c-26.112 0-47.264 21.184-47.264 47.264v472.544c0 26.112 21.152 47.264 47.264 47.264h378.048c26.080 0 47.264-21.152 47.264-47.264v-251.008h58.72v309.728c0 32.576-26.4 59.008-59.008 59.008h-471.968c-32.608 0-59.008-26.432-59.008-59.008v-589.984c0-32.64 26.4-59.008 59.008-59.008h271.392v70.432h-224.448z" />
<glyph unicode="&#xe92f;" glyph-name="disastert" d="M611.36 527.136l69.312-25.504 17.92 48.768-69.248 25.504-17.984-48.768zM438.56 493.632l69.312-25.504 17.984 48.768-69.312 25.504-17.984-48.768zM410.112 772.864l-130.272-353.76c19.584 15.744 42.272 27.744 68.544 28.384l94.080 255.488 336.672-124.064-48.448-131.776c18.592-0.48 36.352-7.296 50.912-19.264l67.584 183.36-439.072 161.632zM580.64 441.344l69.248-25.504 17.984 48.768-69.312 25.536-17.92-48.8zM469.344 579.456l69.312-25.504 17.984 48.768-69.312 25.536-17.984-48.8zM224 276.544c25.312-2.304 51.648 9.152 72.736 31.328 2.368 2.496 4.896 5.344 7.616 8.224 6.464 7.072 19.968 21.888 31.392 31.52 1.216-20 8.896-37.504 15.008-46.688 12.064-18.24 30.432-29.216 51.392-31.072 26.56-2.336 56.48 10.624 78.464 33.792 2.272 2.464 4.832 5.152 7.456 8.096 7.328 8 22.88 24.96 35.776 35.584 1.28-19.904 8.896-37.216 14.976-46.304 12.064-18.24 30.4-29.28 51.488-31.104 26.624-2.208 56.672 10.688 78.624 33.824 2.272 2.368 4.608 4.992 7.168 7.744 6.752 7.328 22.912 24.96 36.256 35.84 1.28-19.904 8.896-37.216 14.976-46.304 12.928-19.456 31.872-31.168 53.44-32.96 2.048-0.192 4.192-0.288 6.144-0.288 23.264 0 47.072 11.168 66.144 31.232l-39.52 37.504c-8.8-9.344-19.68-14.88-28.096-14.112-3.104 0.288-7.68 1.44-12.64 8.864-3.328 4.992-9.152 21.44-3.68 32.256l8.224 16.256-11.872 13.824c-9.696 11.296-22.304 17.248-36.608 17.44h-0.832c-31.84 0-60.576-28.448-91.84-62.784-2.4-2.624-4.672-5.024-6.624-7.168-10.304-10.816-24.192-17.6-34.368-16.768-3.264 0.256-7.072 1.344-10.816 6.976-3.328 5.088-9.12 21.44-3.68 32.256l7.968 16.064-11.968 13.824c-9.76 11.296-22.336 17.28-36.608 17.44h-0.704c-34.432 0-66.016-34.56-91.552-62.464-2.464-2.752-4.8-5.28-6.88-7.424-10.176-10.816-24.16-17.536-34.144-16.8-3.168 0.288-6.976 1.344-10.72 7.008-3.36 4.96-9.184 21.44-3.744 32.256l8.256 16.224-11.904 13.824c-9.984 11.52-22.784 17.76-37.216 17.888h-0.704c-33.248 0-62.816-32.384-86.656-58.56-2.56-2.752-4.896-5.344-7.008-7.616-8.96-9.408-20.128-15.168-28.32-14.368-3.072 0.32-7.616 1.472-12.416 8.736l-45.408-30.144c12.8-19.456 31.648-31.104 53.024-32.896v0zM785.216 177.504c-3.008 0.32-7.648 1.472-12.576 8.864-3.392 5.024-9.152 21.44-3.744 32.288l8.32 16.288-11.904 13.792c-9.76 11.296-22.304 17.216-36.608 17.44h-0.832c-31.872 0-60.608-28.416-92-62.752-2.336-2.656-4.64-5.056-6.592-7.232-10.272-10.752-24.352-17.568-34.336-16.736-3.264 0.256-7.072 1.344-10.816 6.944-3.328 5.12-9.152 21.44-3.712 32.288l8.256 16.288-11.968 13.792c-9.76 11.296-22.336 17.216-36.608 17.44h-0.704c-31.808 0-60.32-28.352-91.552-62.464-2.464-2.752-4.8-5.28-6.816-7.488-10.144-10.688-24.16-17.568-34.144-16.736-3.2 0.256-7.008 1.344-10.72 6.944-3.36 5.024-9.184 21.44-3.712 32.288l8.256 16.288-11.904 13.792c-9.984 11.52-22.816 17.696-37.248 17.888h-0.736c-33.248 0-62.848-32.448-86.624-58.56-2.56-2.752-4.896-5.344-7.008-7.616-8.992-9.472-20.128-14.976-28.32-14.368-3.2 0.352-7.744 1.472-12.544 8.736l-45.408-30.144c12.832-19.36 31.68-31.008 53.056-32.736 25.152-2.112 51.648 9.152 72.736 31.296 2.368 2.56 4.896 5.376 7.616 8.288 6.464 7.072 19.968 21.888 31.392 31.488 1.216-19.968 8.896-37.536 15.008-46.656 12.064-18.24 30.432-29.28 51.392-31.104 26.432-2.24 56.48 10.688 78.464 33.824 2.272 2.432 4.832 5.152 7.36 8 7.328 7.968 22.88 24.96 35.776 35.584 1.28-19.872 8.896-37.216 15.008-46.304 12.064-18.24 30.4-29.28 51.424-31.104 26.432-2.24 56.672 10.688 78.656 33.824 2.144 2.336 4.672 4.992 7.2 7.68 6.72 7.36 22.912 25.088 36.256 36 1.28-19.936 8.864-37.28 14.944-46.304 12.928-19.424 31.904-31.2 53.408-32.992 2.048-0.128 4.224-0.256 6.176-0.256 23.264 0 47.040 11.168 66.144 31.264l-39.616 37.344c-8.768-9.6-19.584-15.008-28.096-14.4v0z" />
<glyph unicode="&#xe930;" glyph-name="emergency" d="M406.528 812.032c-0.48 0.608-0.128-0.224 0 0zM775.84 245.184c-44.48 0-80.64-36.192-80.64-80.64s36.16-80.64 80.64-80.64c44.416 0 80.608 36.192 80.608 80.64s-36.192 80.64-80.608 80.64zM272.16 245.184c-44.448 0-80.608-36.192-80.608-80.64s36.16-80.64 80.608-80.64c44.448 0 80.608 36.192 80.608 80.64s-36.16 80.64-80.608 80.64zM524 245.184c-44.448 0-80.608-36.192-80.608-80.64s36.16-80.64 80.608-80.64 80.608 36.192 80.608 80.64-36.16 80.64-80.608 80.64zM272.16 275.008c9.44 0 17.152 7.744 17.152 17.184 0 25.984 21.12 47.072 47.104 47.072h170.304v-47.072c0-9.44 7.68-17.184 17.152-17.184s17.12 7.744 17.12 17.184v47.264h170.304c26.016 0 47.136-21.12 47.136-47.2 0-9.44 7.712-17.12 17.152-17.12s17.152 7.68 17.152 17.12c0 44.928-36.544 81.568-81.536 81.568h-170.304v63.552c92.16 8.64 164.608 86.56 164.608 180.928 0 100.192-81.536 181.728-181.76 181.728-100.192 0-181.728-81.536-181.728-181.728 0-94.464 72.448-172.288 164.608-180.928v-63.552h-170.304c-44.928 0-81.536-36.512-81.536-81.568 0.224-9.504 7.904-17.248 17.376-17.248v0zM467.904 540.032h-31.488v124.8h31.488v-124.8zM583.36 664.832h30.432v-124.768h-30.432v124.768zM509.888 711.52h33.856v-171.456h-33.856v171.456z" />
<glyph unicode="&#xe931;" glyph-name="logmanagement" d="M823.808 795.136h-592.256v-149.088h-35.296c-19.616 0-35.296-15.68-35.296-35.296s15.68-35.296 35.296-35.296h35.328v-74.496h-35.328c-19.616 0-35.296-15.68-35.296-35.296s15.68-35.264 35.296-35.264h35.328v-109.92h-35.328c-19.616 0-35.296-15.68-35.296-35.328 0-19.52 15.68-35.264 35.296-35.264h35.328v-149.056h592.256c23.552 0 39.232 15.712 39.232 39.232v627.584c-0.032 11.744-19.68 27.488-39.264 27.488zM412 132.256h-137.312v105.952h66.688c19.648 0 35.328 15.616 35.328 35.232s-15.68 35.36-35.328 35.36h-66.688v109.76h66.688c19.648 0 35.328 15.744 35.328 35.296 0 19.616-15.68 35.296-35.328 35.296h-66.688v74.528h66.688c19.648 0 35.328 15.68 35.328 35.328s-15.68 35.328-35.328 35.328h-66.688v105.92h137.312v-608zM725.792 398.976c-23.52 0-47.104 19.584-47.104 43.136s19.584 43.168 47.104 43.168c23.488 0 47.072-19.616 47.072-43.168-0.032-23.552-19.648-43.136-47.072-43.136z" />
<glyph unicode="&#xe932;" glyph-name="management" d="M870.016 127.712h-610.944v425.792h610.912v-425.792zM833.024 515.616h-537.792v-344.992h537.824v344.992zM344.064 468.448h441.792v-244.832h-441.792v244.832zM259.072 341.44l-79.52 172.864 486.912 228.576 89.76-189.376h41.056l-112.224 238.848-554.976-259.648 128.992-278.976v87.712zM705.696 553.504l-57.6 123.168-263.008-123.168h320.608zM261.568 493.984l-2.592-1.216 2.592-5.536v6.752z" />
<glyph unicode="&#xe933;" glyph-name="police" d="M304.512 561.216l-113.216 75.616-19.168-37.792 113.568-75.264 18.816 37.44zM493.344 806.624h37.76v-207.488h-37.76v207.488zM398.912 599.040l-75.744 150.976-37.44-18.752 75.264-150.88 37.92 18.656zM739.936 730.848l-39.136 19.168-75.616-150.976 37.824-18.656 76.928 150.464zM512 580.384c-128.576 0-254.688-82.272-299.872-187.584l-1.632-303.168h603.968l0.32 310.112c-47.584 101.664-177.088 180.64-302.784 180.64v0zM757.44 146.080h-264.064l1.216 356.832c12.608-0.736 164 28.448 262.976-130.56v-226.272h-0.128zM757.44 523.776l94.432 75.264-18.816 37.824-94.368-75.616 18.752-37.472z" />
<glyph unicode="&#xe934;" glyph-name="privilege" d="M868.096 217.376v64.256c0 0-42.56 7.2-42.56 10.784s-3.616 7.232-3.616 10.848c3.616 10.816 28.16 28.128 28.16 28.128l-46.176 64.16c0 0-31.712-24.512-38.944-28.128-3.616 0-7.264 3.616-10.848 3.616-3.616 0-14.368 42.528-14.368 42.528h-64.224c0 0-7.232-38.944-18.016-42.528-3.616 0-7.2-3.616-10.784-3.616-7.296 3.616-38.944 28.128-38.944 28.128l-46.144-64.16c0 0 24.48-24.544 24.48-31.744 0-3.616-3.648-3.616-3.648-7.232-10.784-3.584-38.912-10.784-38.912-10.784v-64.256c0 0 35.328-7.168 38.912-14.368 0-3.616 3.648-7.264 3.648-10.816-7.232-10.816-28.096-24.512-28.096-24.512l49.792-64.192c0 0 38.944 24.544 46.080 24.544 3.616 0 7.232-3.616 10.784-3.616 7.264-3.648 10.88-38.976 10.88-38.976h64.192c0 0 3.616 35.328 7.264 38.976 3.488 0 10.72 3.616 14.336 3.616 7.232-3.616 31.712-28.128 31.712-28.128l64.256 64.16c0 0-24.512 17.984-28.128 24.512 3.616 3.616 3.616 7.2 3.616 10.816-7.264 10.816 35.296 17.984 35.296 17.984v0zM708.672 164.064c-46.080 0-81.536 35.328-81.536 81.472 0 46.176 35.424 81.536 81.536 81.536 46.144 0 81.504-35.328 81.504-81.536 0-45.44-35.328-81.472-81.504-81.472v0zM221.92 175.552v0c-24.544 0-46.144 21.664-46.144 42.592-0.032-21.6 21.6-42.592 46.144-42.592v0zM516.896 406.4c0 3.584 0 3.584 0 0v0zM221.92 175.552h287.744c-10.816 24.544-18.048 53.408-18.048 81.504 0 110.336 88.736 199.040 199.104 199.040 10.752 0 21.568 0 28.064-3.616v77.92c0 24.544-21.632 42.56-46.176 42.56h-454.272c-24.544 0-46.176-18.016-46.176-42.56v-315.872c3.584-17.984 25.216-38.976 49.76-38.976v0zM378.4 409.984c0 35.328 31.712 64.16 67.744 64.16 38.976 0 67.84-28.064 67.84-64.16v-3.584c0-24.544-14.432-42.592-35.296-53.44v-60.576c0-17.984-14.464-31.744-35.36-31.744-18.016 0-35.328 14.464-35.328 31.744v60.576c-15.136 10.848-29.6 31.776-29.6 57.024v0zM445.472 746.752c74.304 0 134.88-56.928 134.88-127.616h67.808c0 103.104-92.32 188.192-202.688 188.192-110.336 0-202.656-85.088-202.656-188.192h67.776c0.032 71.36 60.608 127.616 134.88 127.616v0z" />
<glyph unicode="&#xe935;" glyph-name="privileg1" d="M436.384 279.872h-28.48v43.072c0.576 135.84-101.952 120.192-103.072 120.192l-0.32 0.032c-108 0-101.632-118.176-101.632-120.256v-43.072h-30.784c-12.8 0-22.528-9.088-22.528-20.928v-162.72c0-11.936 9.728-20.928 22.528-20.928h264.256c12.768 0 22.72 8.992 22.72 20.928v162.72c0.032 11.872-9.984 20.96-22.688 20.96zM240.128 322.944c0 0.384-4 81.6 62.592 81.6 5.92-0.224 63.2 3.232 63.2-81.6v-43.072h-125.792v43.072zM874.4 131.488c0-49.44-62.912-56.224-62.912-56.224h-264.576c0 0-33.248-0.768-33.248 31.68l-1.088 159.328c1.312 152.896-39.392 208.448-132.608 238.752-26.944 20.192-38.144 25.344-38.144 63.552s31.424 38.208 31.424 38.208 0-1.088 11.168 61.824c10.88 61.056 70.592 126.176 168.544 129.952v0.384c1.44 0 2.784-0.16 4.256-0.16 1.6 0 3.136 0.16 4.768 0.16v-0.416c85.184-4.288 146.464-69.12 157.312-129.888 11.264-62.912 11.264-61.824 11.264-61.824s31.36 0 31.36-38.208c0-38.208-11.136-51.744-38.112-71.904-26.976-20.256-18.944-63.776-60.64-102.208-22.272-20.512-38.176-35.968-38.176-65.248 0-29.12 15.712-35.872 31.36-44.832 15.712-9.024 121.376-38.208 170.848-72 49.472-33.824 47.2-51.712 47.2-80.928z" />
<glyph unicode="&#xe936;" glyph-name="release2" d="M716.576 94.688h-441.664c-48.768 0-88.32 39.552-88.32 88.352v482.88c0 48.768 39.552 88.32 88.32 88.32h44.16v24.992c0 12.192 9.888 22.080 22.080 22.080h44.16c12.192 0 22.048-9.888 22.048-22.080v-25.024h176.672v25.024c0 12.192 9.856 22.080 22.048 22.080h44.16c12.224 0 22.080-9.888 22.080-22.080v-25.024h44.16c48.8 0 88.32-39.52 88.32-88.32v-482.88c0.064-48.768-39.424-88.32-88.224-88.32v0zM760.704 668.832c0 24.384-19.776 44.128-44.16 44.128h-44.16v-22.048c0-12.224-9.888-22.080-22.080-22.080h-44.16c-12.224 0-22.048 9.856-22.048 22.080v22.080h-176.672v-22.048c0-12.224-9.856-22.080-22.048-22.080h-44.16c-12.192 0-22.080 9.856-22.080 22.080v22.048h-44.16c-24.416 0-44.128-19.776-44.128-44.128v-441.664c0-24.416 19.744-44.16 44.128-44.16h441.664c24.384 0 44.192 19.744 44.192 44.16l-0.128 441.632zM319.072 359.648h352.928v-88.352h-352.928v88.352zM319.072 492.128h352.928v-88.352h-352.928v88.352zM319.072 624.672h352.928v-88.384h-352.928v88.384z" />
<glyph unicode="&#xe937;" glyph-name="aggregation" d="M877.44 587.392l-360.256 218.208-360.256-218.208 360.256-218.144 360.256 218.144zM832.64 465.76l-329.184-200.16-329.12 200.16c-8.672 5.28-19.904 2.496-25.152-6.112-5.248-8.64-2.496-19.872 6.112-25.12l338.656-205.952c2.88-1.728 6.176-2.688 9.536-2.688 3.296 0 6.592 0.896 9.504 2.688l338.656 205.952c8.64 5.248 11.392 16.512 6.112 25.12s-16.512 11.392-25.12 6.112v0zM832.64 337.632l-329.152-200.16-329.152 200.16c-8.672 5.28-19.904 2.496-25.152-6.080-5.248-8.672-2.496-19.904 6.112-25.152l338.656-205.952c2.88-1.792 6.176-2.688 9.536-2.688 3.296 0 6.592 0.896 9.504 2.688l338.656 205.952c8.64 5.248 11.392 16.512 6.112 25.152-5.28 8.576-16.512 11.36-25.12 6.080v0z" />
<glyph unicode="&#xe938;" glyph-name="aggregation1" d="M456.48 570.624c0-34.528-28-62.528-62.56-62.528h-126.080c-34.528 0-62.496 28-62.496 62.528v126.080c0 34.56 28 62.528 62.496 62.528h126.080c34.56 0 62.56-28 62.56-62.528v-126.080zM393.92 471.712h-126.080c-54.528 0-98.88 44.384-98.88 98.912v126.080c0 54.528 44.384 98.912 98.88 98.912h126.080c54.56 0 98.912-44.384 98.912-98.912v-126.112c0-54.528-44.352-98.88-98.912-98.88zM267.84 722.88c-14.4 0-26.112-11.744-26.112-26.144v-126.112c0-14.4 11.712-26.144 26.112-26.144h126.080c14.432 0 26.144 11.744 26.144 26.144v126.080c0 14.4-11.712 26.144-26.144 26.144h-126.080zM839.072 572.192c0-34.56-28-62.528-62.496-62.528h-126.112c-34.496 0-62.528 28-62.528 62.528v126.080c0 34.528 28.032 62.528 62.528 62.528h126.112c34.496 0 62.496-28 62.496-62.528v-126.080zM776.576 473.312h-126.112c-54.56 0-98.912 44.384-98.912 98.912v126.080c0 54.528 44.352 98.912 98.912 98.912h126.112c54.496 0 98.88-44.384 98.88-98.912v-126.080c-0.032-54.56-44.384-98.912-98.88-98.912zM650.432 724.416c-14.4 0-26.112-11.712-26.112-26.144v-126.080c0-14.432 11.712-26.144 26.112-26.144h126.112c14.336 0 26.112 11.712 26.112 26.144v126.080c0 14.432-11.776 26.144-26.112 26.144h-126.112zM456.48 185.664c0-34.464-28-62.464-62.56-62.464h-126.080c-34.528 0-62.496 28-62.496 62.464v126.144c0 34.496 28 62.464 62.496 62.464h126.080c34.56 0 62.56-27.968 62.56-62.464v-126.144zM393.92 86.816h-126.080c-54.528 0-98.88 44.32-98.88 98.912v126.080c0 54.528 44.384 98.88 98.88 98.88h126.080c54.56 0 98.912-44.352 98.912-98.88v-126.080c0-54.592-44.352-98.912-98.912-98.912zM267.84 337.952c-14.4 0-26.112-11.776-26.112-26.112v-126.144c0-14.368 11.712-26.112 26.112-26.112h126.080c14.432 0 26.144 11.744 26.144 26.112v126.144c0 14.432-11.712 26.112-26.144 26.112h-126.080zM839.072 187.264c0-34.464-28-62.496-62.496-62.496h-126.112c-34.496 0-62.528 28.032-62.528 62.496v126.112c0 34.528 28.032 62.528 62.528 62.528h126.112c34.496 0 62.496-28 62.496-62.528v-126.112zM776.576 88.416h-126.112c-54.56 0-98.912 44.32-98.912 98.848v126.112c0 54.496 44.352 98.912 98.912 98.912h126.112c54.496 0 98.88-44.416 98.88-98.912v-126.112c-0.032-54.56-44.384-98.848-98.88-98.848zM650.432 339.52c-14.4 0-26.112-11.776-26.112-26.144v-126.112c0-14.368 11.712-26.112 26.112-26.112h126.112c14.336 0 26.112 11.744 26.112 26.112v126.112c0 14.368-11.776 26.144-26.112 26.144h-126.112z" />
<glyph unicode="&#xe939;" glyph-name="aggregation2" d="M871.232 644.8v155.2h-718.464v-58.176l287.392-294.528-287.392-304.064v-47.232h718.432v156.64l-71.808-62.336h-454.4l283.584 293.792-252.512 257.76h374.784l120.384-97.056z" />
<glyph unicode="&#xe93a;" glyph-name="statistics" d="M292.736 76.256h-90.048c-19.904 0-36.032 13.536-36.032 30.144v481.824c0 16.64 16.128 30.144 36.032 30.144h90.048c19.904 0 36.096-13.504 36.096-30.144v-481.824c0.032-16.608-16.16-30.144-36.096-30.144zM564.672 76.256h-91.36c-20.064 0-36.352 14.24-36.352 31.712v695.584c0 17.44 16.288 31.648 36.352 31.648h91.36c20.064 0 36.384-14.208 36.384-31.648v-695.584c0-17.472-16.32-31.712-36.384-31.712zM835.264 76.256h-89.984c-19.904 0-36.128 14.24-36.128 31.712v316.096c0 17.504 16.224 31.648 36.128 31.648h89.984c19.936 0 36.128-14.144 36.128-31.648v-316.096c-0.032-17.472-16.192-31.712-36.128-31.712z" />
<glyph unicode="&#xe93b;" glyph-name="statistics1" d="M280.128 328.64h66.24v99.36h-66.24v-99.36zM810.080 759.232h-596.16c-36.448 0-66.24-29.824-66.24-66.24v-397.472c0-36.448 29.792-66.208 66.24-66.208h596.192c36.448 0 66.24 29.792 66.24 66.208v397.44c0 36.448-29.824 66.272-66.272 66.272zM810.080 328.64c0-19.872-13.248-33.12-33.088-33.12h-529.952c-19.872 0-33.12 13.248-33.12 33.12v331.2c0 19.872 13.248 33.12 33.12 33.12h529.984c19.84 0 33.088-13.248 33.088-33.12v-331.2zM611.36 196.16h-198.72v-33.12h-165.6v-66.24h529.984v66.24h-165.632v33.12zM412.64 328.64h66.24v165.632h-66.24v-165.632zM545.12 328.64h66.24v298.080h-66.24v-298.080zM677.632 328.64h66.208v231.872h-66.208v-231.872z" />
<glyph unicode="&#xe93c;" glyph-name="system" d="M849.824 497.376l-74.56 16.064c-6.368 24.992-16.288 48.64-29.056 70.304l41.312 64.064c14.624 14.624 5.088 29.632-10.080 44.8l-18.272 18.272c-15.136 15.168-30.176 24.736-44.768 10.080l-64.064-41.344c-21.696 12.8-45.28 22.688-70.304 29.12l-16.032 74.496c0 20.704-17.408 24.576-38.816 24.576h-25.856c-21.44 0-38.816-3.872-38.816-24.576l-16.032-74.496c-24.992-6.432-48.608-16.32-70.272-29.12l-64.16 41.376c-14.656 14.656-29.664 5.056-44.8-10.048l-18.304-18.304c-15.168-15.168-24.704-30.176-10.048-44.8l41.344-64.064c-12.832-21.696-22.72-45.312-29.152-70.304l-74.496-16c-20.704 0-24.576-17.408-24.576-38.816v-25.856c0-21.44 3.872-38.88 24.576-38.88l74.496-16c6.432-24.992 16.32-48.608 29.152-70.304l-41.376-64.096c-14.656-14.656-5.088-29.696 10.048-44.768l18.304-18.304c15.136-15.2 30.144-24.672 44.8-10.080l64.064 41.376c21.664-12.832 45.28-22.752 70.272-29.152l16.032-74.496c0-20.704 17.376-24.576 38.816-24.576h25.856c21.408 0 38.816 3.84 38.816 24.576l16.032 74.56c25.024 6.336 48.64 16.256 70.304 29.088l64.064-41.376c14.592-14.592 29.664-5.088 44.768 10.080l18.272 18.304c15.2 15.104 24.704 30.112 10.048 44.768l-41.28 64.032c12.768 21.728 22.688 45.312 29.088 70.304l74.528 16c20.704 0 24.576 17.44 24.576 38.88v25.856c0.096 21.44-3.744 38.784-24.448 38.784zM512.192 277.472c-92.864 0-168.16 75.328-168.16 168.224 0 92.864 75.296 168.16 168.16 168.16s168.192-75.296 168.192-168.16c0-92.896-75.328-168.224-168.192-168.224zM512.192 523.296c-42.88 0-77.632-34.72-77.632-77.6s34.752-77.664 77.632-77.664 77.664 34.784 77.664 77.664c0 42.848-34.784 77.6-77.664 77.6z" />
<glyph unicode="&#xe93d;" glyph-name="system1" d="M847.040 505.728h-74.592c-13.152 0-27.456 10.24-31.616 22.816l-10.144 24.096c-6.048 11.808-3.36 29.056 5.952 38.368l53.088 53.088c9.344 9.344 9.344 24.672 0 34.016l-47.616 47.616c-9.312 9.312-24.672 9.312-33.984 0l-53.472-53.44c-9.312-9.344-26.624-12.128-38.464-6.176l-23.552 9.696c-12.544 4.064-22.88 18.24-22.88 31.488v75.712c0 13.28-10.784 24.064-24.064 24.064h-67.328c-13.248 0-24.032-10.784-24.032-24.064v-75.808c0-13.248-10.304-27.328-22.848-31.488l-23.552-9.664c-11.776-5.984-29.12-3.168-38.496 6.176l-53.44 53.408c-9.312 9.344-24.672 9.344-34.016 0l-47.744-47.52c-9.344-9.344-9.344-24.672 0-34.016l53.088-53.088c9.344-9.344 12.064-26.656 5.952-38.368l-10.144-24.096c-4.192-12.576-18.464-22.816-31.648-22.816h-74.528c-13.28 0-24.064-10.816-24.064-24.064v-67.328c0-13.28 10.784-24.032 24.064-24.032h73.792c13.248 0 27.328-10.304 31.36-23.008l10.24-25.088c5.984-11.84 3.168-29.12-6.24-38.464l-51.84-51.808c-9.344-9.344-9.344-24.672 0-34.048l47.616-47.584c9.344-9.376 24.704-9.376 34.016 0l51.456 51.456c9.344 9.344 26.656 12.096 38.4 6.048l25.664-10.784c12.576-4.096 22.848-18.24 22.848-31.456v-72.64c0-13.184 10.816-24.032 24.032-24.032h67.328c13.28 0 24.064 10.848 24.064 24.032v72.64c0 13.28 10.336 27.424 22.88 31.456l18.72 7.808-36.256 36.256c-19.968-6.784-41.248-10.304-63.008-10.304-52.224 0-101.344 20.384-138.272 57.312-36.96 36.96-57.312 86.016-57.312 138.304 0 52.224 20.352 101.344 57.312 138.272 36.96 36.96 86.048 57.312 138.272 57.312 52.256 0 101.344-20.352 138.304-57.312 36.928-36.96 57.312-86.048 57.312-138.272 0-21.28-3.328-41.984-9.92-61.664l36.448-36.416 7.776 19.104c4 12.576 18.016 22.912 31.328 22.912h73.792c13.28 0 24.064 10.784 24.064 24.064v67.328c-0.064 13.184-10.848 24-24.096 24v0zM659.392 369.152c-7.744 7.488-11.328 13.664-6.976 25.728 22.688 63.872 1.92 129.344-53.568 168.16-35.072 24.48-74.112 31.552-117.344 18.656 16.128-18.944 34.304-34.72 51.328-51.68 33.472-33.184 33.952-74.272 2.016-105.728-30.912-30.4-72.672-29.472-104.704 2.976-16.832 16.96-33.088 34.592-49.6 51.872-1.952-1.184-4-2.368-5.952-3.552-9.536-52.128 2.304-98.656 41.44-135.968 41.632-39.744 91.52-51.008 146.208-32.64 13.984 4.704 21.408 2.272 30.88-7.36 40.704-41.376 114.56-111.52 156.192-152.192 20.064-19.616 44.736-20.288 64.608-3.104 24.64 21.312 25.792 49.536 2.24 73.152-41.184 41.184-115.264 111.136-156.768 151.68v0zM779.232 161.984c-12.608 0-22.848 10.208-22.848 22.848s10.24 22.848 22.848 22.848c12.64 0 22.912-10.208 22.912-22.848s-10.304-22.848-22.912-22.848z" />
<glyph unicode="&#xe93e;" glyph-name="usage" d="M463.904 753.92c-181.536 0-328.768-145.088-329.952-324.352v-4.416c1.216-179.392 148.48-324.416 329.952-324.416 95.776-0.192 186.944 41.152 249.888 113.312l-249.888 213.344v326.528zM519.744 818.976v-326.592h330.016c0.032 180.416-147.744 326.592-330.016 326.592zM769.504 233.152c51.776 58.944 80.32 134.752 80.288 213.28h-330.048l249.76-213.28z" />
<glyph unicode="&#xe93f;" glyph-name="usage1" d="M236.16 354.976c-12.64 0-24.608 2.368-35.904 7.2-11.328 4.8-21.12 11.328-29.376 19.584s-14.784 18.016-19.584 29.376c-4.768 11.296-7.2 23.296-7.2 35.84 0 12.672 2.4 24.544 7.2 35.68 4.768 11.072 11.328 20.768 19.584 28.992 8.256 8.288 18.048 14.816 29.376 19.616s23.296 7.168 35.904 7.168c2.624 0 4.992-0.096 7.168-0.32s4.352-0.32 6.528-0.32l127.328 154.080c-2.144 4.32-3.584 9.12-4.256 14.336s-0.992 10.656-0.992 16.32c0 12.64 2.4 24.576 7.2 35.904s11.328 21.12 19.616 29.376c8.224 8.256 18.048 14.784 29.376 19.584 11.328 4.768 23.264 7.2 35.904 7.2s24.576-2.4 35.936-7.2c11.328-4.768 21.088-11.328 29.376-19.584 8.256-8.256 14.816-18.048 19.552-29.376 4.8-11.328 7.2-23.296 7.2-35.904 0-10.464-1.632-20.352-4.864-29.696-3.328-9.344-7.712-18.176-13.376-26.464l110.304-246.784 63.328 112.928c-4.8 7.424-8.704 15.584-11.776 24.512-3.040 8.896-4.576 18.368-4.576 28.384 0 12.64 2.4 24.576 7.232 35.936 4.736 11.296 11.296 21.12 19.552 29.344 8.256 8.288 18.048 14.816 29.376 19.584 11.296 4.8 23.296 7.168 35.904 7.168s24.64-2.368 35.936-7.168c11.296-4.768 21.184-11.328 29.696-19.584s15.136-18.048 19.904-29.344c4.768-11.328 7.2-23.328 7.2-35.936 0-13.056-2.4-25.248-7.2-36.576-4.768-11.328-11.392-21.184-19.904-29.696-8.512-8.48-18.4-15.072-29.696-19.936-11.328-4.768-23.328-7.168-35.936-7.168h-15.68l-62.016-112.96c9.6-8.704 17.216-18.944 22.88-30.688s8.48-24.608 8.48-38.528c0-12.608-2.4-24.608-7.2-35.904-4.8-11.328-11.392-21.216-19.872-29.728-8.544-8.48-18.304-15.072-29.44-19.904-11.072-4.736-23.168-7.168-36.224-7.168-13.024 0-25.12 2.4-36.256 7.168-11.072 4.832-20.768 11.424-29.024 19.904-8.288 8.512-14.816 18.368-19.552 29.728-4.8 11.328-7.232 23.328-7.232 35.904 0 13.952 2.752 26.784 8.16 38.528 5.472 11.744 12.96 21.984 22.56 30.688l-112.32 251.328c-4.352-0.864-7.84-1.312-10.464-1.312-6.976 0-13.6 0.864-19.936 2.624-6.304 1.728-12.288 3.904-17.952 6.528l-111.616-140.96c4.384-7.36 7.84-15.328 10.464-23.84 2.592-8.48 3.936-17.248 3.936-26.464 0-12.576-2.432-24.576-7.2-35.84-4.8-11.328-11.424-21.12-19.936-29.376-8.48-8.256-18.272-14.784-29.376-19.584s-23.168-7.2-36.224-7.2v0zM144.096 170.24h735.808v-88.832h-735.808v88.832z" />
<glyph unicode="&#xe940;" glyph-name="usage2" d="M477.44 806.752c-181.632-17.984-323.68-170.816-323.68-357.856 0-53.952 12.608-104.32 32.384-149.248l291.328 167.232v339.872h-0.032zM223.872 236.704c64.736-89.952 170.848-147.456 289.536-147.456s224.768 57.536 289.536 147.456l-289.536 167.232-289.536-167.232zM594.336 745.632c25.152 14.4 19.776 50.336-7.232 55.744l-32.352 5.376h-5.408v-35.968c0.032-21.568 25.184-35.968 44.992-25.152v0zM594.336 599.968l140.256 80.928c17.984 10.784 19.776 35.968 3.584 48.544-3.584 3.584-8.992 7.2-12.608 8.992-8.96 7.2-21.568 7.2-32.352 1.824l-129.504-75.52c-8.96-5.376-14.368-14.4-14.368-25.184v-14.4c0.032-23.392 25.184-37.792 44.992-25.184v0zM563.744 457.92l5.408-3.584c8.992-5.408 19.776-5.408 28.768 0l219.36 125.888c14.368 7.2 19.776 25.152 10.784 39.552-1.792 3.584-5.376 8.96-7.2 12.608-8.992 14.368-26.976 17.984-39.552 10.784l-217.6-125.888c-8.96-5.408-14.368-14.4-14.368-25.184v-8.992c0.032-9.024 5.44-19.808 14.4-25.184zM810.112 367.968c-19.776-10.784-19.776-39.552 0-50.336l26.976-16.192 1.824-1.792c0 1.792 1.792 1.792 1.792 3.584 3.584 8.96 8.992 19.776 12.608 28.768 8.96 25.184-19.808 48.576-43.2 35.968v0zM869.472 501.056c-3.584 21.568-25.184 32.384-44.96 21.568l-142.048-82.72c-19.776-10.784-19.776-39.552 0-50.336l12.608-7.2c8.992-5.408 19.776-5.408 28.768 0l131.296 75.52c8.96 5.376 16.16 16.192 14.368 28.736 1.76 3.616-0.032 9.024-0.032 14.432v0z" />
<glyph unicode="&#xe941;" glyph-name="AddList" d="M603.424 505.44c-102.272-21.92-164-122.176-142.112-228.448 29.92-146.112 216.512-200.576 322.784-94.304 62.4 62.432 73.056 165.376 25.248 241.056-43.168 67.744-123.52 99.616-205.92 81.696zM677.824 381.888v-33.184h66.432v-59.776h-66.432v-66.368h-59.776v66.368h-66.4v59.776h66.4v66.432h59.776v-33.248zM184.832 768.8h574.304v-132.448h-574.304v132.448zM593.568 548.064c-71.456-18.848-126.112-68.512-154.080-132.448h-254.656v132.448h408.736zM759.168 548.064v-10.656c-9.984 4.224-20.192 7.776-30.72 10.656h30.72zM424.352 260.992c6.048-29.568 17.184-56.128 32.096-79.36h-271.616v132.448h233.952c0.064-17.44 1.888-35.2 5.568-53.088z" />
<glyph unicode="&#xe942;" glyph-name="appealeval" d="M656.32 768h-399.68c-29.76 0-53.76-25.6-53.76-57.28v-280.96c0-31.648 24-57.28 53.76-57.28h399.68c29.792 0 54.080 25.632 54.080 57.28v280.96c0 31.68-24.32 57.28-54.080 57.28zM605.76 484.8h-298.56v58.88h298.56v-58.88zM605.76 600h-298.56v58.56h298.56v-58.56zM315.584 261.504c-20.48-20.992-23.744-3.296-23.744 16.896v116.704c17.504 4.192 26.816 5.536 56.832 9.536l65.984-5.344c26.4-8.704 28.224-7.392 7.744-28.416l-106.816-109.376zM741.376 685.856c-10.816 11.52-11.264-9.728-11.264-9.728v-262.112c0-33.472-25.76-60.8-57.216-60.8h-216.96c0 0-10.624 0.384-17.248-6.688-7.2-9.12-39.68-43.872-47.968-55.488-8.32-11.616 7.456-10.496 7.456-10.496h358.944c29.664 0 53.888 25.76 53.888 57.312 0 0 0 252.416 0 257.728 0 5.28-0.96 16.672-6.976 23.040-6.016 6.336-50.272 54.048-62.656 67.232zM686.496 169.248c20.512-20.96 23.744-3.328 23.744 16.896v116.672c-7.584 30.336-64.992 47.936-91.36 39.232l-28.48-9.408c-26.368-8.672-31.2-33.056-10.72-54.016l106.816-109.376z" />
<glyph unicode="&#xe943;" glyph-name="Attachment" d="M610.528 714.816l-321.856-315.296c-26.272-19.68-39.392-52.512-39.392-85.376s13.152-65.664 39.392-91.968c26.272-26.272 59.136-39.392 91.968-39.392 39.424 0 72.256 13.12 98.56 39.392l302.144 302.176 26.272-26.272-308.704-302.176c-32.864-32.832-72.256-52.544-118.24-52.544-39.392 0-78.816 19.68-111.648 46.016l-6.624 6.528c-32.832 32.832-46.016 72.256-46.016 118.24 0 39.424 13.152 78.816 46.016 111.648l321.856 315.328c19.712 19.712 52.576 32.832 78.848 32.832 32.832 0 65.696-13.12 85.376-32.832 26.272-26.272 32.832-52.544 32.832-85.376 0-26.272-6.56-59.104-32.832-78.816l-275.872-269.312c-13.152-13.12-32.864-19.712-46.016-19.712-13.12 0-32.864 0-45.984 13.152v6.56c-13.152 13.12-19.712 26.272-19.712 46.016 0 13.12 6.56 32.8 19.712 45.952l262.752 262.752 26.272-26.272-269.312-262.72c-6.592-6.56-6.592-13.12-6.592-19.68 0-6.592 0-19.712 6.592-26.304 6.56-6.56 19.712-6.56 26.272-6.56s13.152 0 19.712 6.56l275.872 275.904c19.712 13.12 26.272 32.832 26.272 52.544 0 26.272-6.56 45.984-26.272 59.104-13.152 13.088-32.832 26.208-59.072 26.208-19.744 0-39.456-13.12-52.576-26.304v0z" />
<glyph unicode="&#xe944;" glyph-name="Backward" d="M505.568 756.096c-157.632 0-285.44-127.84-285.44-285.44s127.84-285.44 285.44-285.44c157.664 0 285.44 127.84 285.44 285.44s-127.744 285.44-285.44 285.44zM505.568 225.472c-135.392 0-245.184 109.792-245.184 245.216s109.792 245.152 245.184 245.152c135.36 0 245.056-109.792 245.056-245.152 0-135.424-109.696-245.216-245.056-245.216zM668.672 470.464c0-11.52-9.408-20.896-20.96-20.896l-233.824 0.224 97.92-97.92c8.128-8.192 8.128-21.376 0-29.6-4.128-4.096-9.44-6.112-14.784-6.112s-10.72 2.048-14.752 6.112l-133.664 133.6c-0.096 0.128-0.128 0.256-0.192 0.32-1.856 1.888-3.296 4.064-4.32 6.496-0.864 2.144-1.216 4.384-1.344 6.688 0 0.448-0.256 0.832-0.256 1.312 0 0.32 0.192 0.576 0.192 0.832 0.064 2.464 0.544 4.864 1.408 7.136 0.864 2.080 2.208 3.84 3.68 5.504 0.32 0.416 0.448 0.896 0.864 1.312l133.632 133.632c8.128 8.16 21.376 8.16 29.6 0 8.192-8.16 8.128-21.408 0-29.6l-97.92-97.888h233.824c11.52 0 20.896-9.632 20.896-21.152z" />
<glyph unicode="&#xe945;" glyph-name="callphone" d="M750.272 338.592c-54.304 34.176-62.624 38.976-81.696 35.936-19.136-3.040-24.8-7.136-52.32-45.76-3.872-4.736-40.768-61.824-173.152 65.344-97.088 100.096-68.352 136.416-49.984 159.968 15.968 14.912 33.888 21.536 36.544 48.192 1.152 12.256-0.448 37.408-40.736 92.672-27.008 39.456-32.384 42.624-50.4 42.976-18.016 0.32-46.72-8.576-76.256-32.416-29.216-19.616-38.24-42.624-41.344-69.568-3.296-33.984-9.76-149.024 136-309.664 145.792-160.672 334.24-195.232 399.936-149.664 28.256 20.128 51.36 64.736 52.384 93.472 3.52 19.84-4.64 34.336-58.976 68.512z" />
<glyph unicode="&#xe946;" glyph-name="Disposal-information" d="M774.080 627.52l-133.44 122.56c-4.48 4.16-10.208 6.4-16.32 6.4h-321.92c-33.28 0-60.16-26.88-60.16-60.16v-479.68c0-33.248 26.88-60.16 60.16-60.16h148.16v48.64h-148.16c-6.4 0-11.52 5.12-11.52 11.488v479.712c0 6.080 5.12 11.52 11.52 11.52h312.32l118.4-108.8v-65.6h48.64v76.16c0 6.72-2.88 13.44-7.68 17.92zM757.536 585.344h-0.32l-133.248 1.728c-13.344 0.128-24.032 10.976-24.032 24.32v120.736c0 13.408 10.912 24.32 24.32 24.32s24.32-10.912 24.32-24.32v-96.832l109.248-1.344c13.408-0.128 24.16-11.2 24.032-24.608-0.16-13.376-10.976-24-24.32-24v0zM795.232 311.968l41.344-7.296-7.328-41.568-41.728 7.328c-4.224-11.808-10.144-22.656-17.28-32.512l30.208-30.208-29.888-29.792-30.208 30.208c-9.952-7.2-20.896-12.864-32.544-17.056l7.392-41.984-41.6-7.328-7.328 41.632c-8.448-0.192-16.992 0.416-25.632 1.92-3.808 0.672-7.552 1.536-11.2 2.496l-17.696-37.888-38.24 17.888 17.44 37.376c-10.624 7.040-19.904 15.648-28 25.184l-35.424-20.48-21.12 36.608 34.688 20.032c-6.112 15.328-9.44 31.904-9.376 49.056l-38.688 6.816 7.328 41.6 38.24-6.752c4.256 12.672 10.336 24.224 17.888 34.72l-27.328 27.328 29.92 29.888 27.168-27.168c10.56 7.68 22.272 13.792 34.816 18.048l-6.72 37.888 41.6 7.328 6.752-38.272c7.808 0.032 15.744-0.48 23.744-1.888 5.056-0.896 9.92-2.112 14.752-3.584l16.608 35.584 38.272-17.888-16.864-36.064c10.528-7.392 19.648-16.448 27.52-26.4l35.296 20.384 21.152-36.576-35.68-20.608c5.408-15.104 8.16-31.296 7.744-48v0zM674.432 377.024c-34.144 6.016-66.752-16.768-72.768-50.976-6.016-34.112 16.8-66.72 50.944-72.704 34.176-6.048 66.784 16.768 72.8 50.944 5.984 34.176-16.8 66.752-50.976 72.736v0zM664.928 276.064c-21.344 0-38.656 17.28-38.656 38.592 0 21.344 17.312 38.624 38.656 38.624s38.656-17.28 38.656-38.624c0-21.312-17.312-38.592-38.656-38.592v0z" />
<glyph unicode="&#xe947;" glyph-name="Edit1" d="M814.304 714.368l-49.216 49.248c-11.328 11.2-29.472 11.2-40.608 0l-51.456-51.552 89.824-89.824 51.456 51.328c11.232 11.488 11.232 29.6 0 40.8v0 0zM657.824 696.704l-278.4-287.264-22.784-103.552 103.584 22.752 285.856 279.968-88.256 88.096zM719.168 461.184v-242.784c0-8.224-6.304-16.352-14.848-16.352-8.576 0-435.36 0.192-435.36 0.192-9.12 0-15.904 8.704-15.904 16.16v433.76c0 8.096 7.616 16.16 17.216 16.16h241.728l51.776 51.776h-324.608c-21.088 0-37.888-16.64-37.888-37.632v-494.080c0-20.832 17.024-37.888 37.888-37.888h494.048c20.832 0 37.728 17.024 37.728 37.888v324.576l-51.776-51.776z" />
<glyph unicode="&#xe948;" glyph-name="Export" d="M615.712 695.552h-275.744c-20.8 0-41.6-15.616-41.6-41.632v-390.24c0-20.8 20.8-36.448 41.6-36.448h338.176v-78.048h-416.224c-20.8 0-41.6 15.616-41.6 41.696v541.088c0 26.016 15.616 41.632 36.416 41.632h416.224v-78.016h-57.248zM381.6 508.224h234.112v-83.232h-234.112v83.232zM615.712 601.888l187.328-140.48-187.328-140.512v280.992z" />
<glyph unicode="&#xe949;" glyph-name="Forward" d="M512 133.12c173.888 0 314.912 140.992 314.912 314.88 0 173.92-141.024 314.88-314.912 314.88-173.984 0-314.912-140.992-314.912-314.88s140.928-314.88 314.912-314.88v0zM512 718.432c149.344 0 270.464-121.056 270.464-270.432s-121.12-270.432-270.464-270.432c-149.344 0-270.368 121.12-270.368 270.432 0 149.344 121.024 270.432 270.368 270.432v0zM332.064 448.192c0 12.768 10.336 23.072 23.136 23.072l257.952-0.192-108 108c-8.96 8.96-8.96 23.552 0 32.64 4.544 4.512 10.432 6.752 16.32 6.752s11.808-2.304 16.32-6.752l147.424-147.392c0.096-0.128 0.16-0.256 0.192-0.384 2.016-2.048 3.616-4.48 4.736-7.168 0.96-2.4 1.376-4.864 1.504-7.36 0-0.48 0.32-0.896 0.32-1.44 0-0.384-0.224-0.64-0.224-0.96-0.096-2.688-0.608-5.344-1.6-7.872-0.896-2.304-2.432-4.256-4-6.080-0.384-0.48-0.512-0.992-0.992-1.408l-147.36-147.424c-8.992-8.992-23.648-8.992-32.672 0-9.024 9.056-8.992 23.616 0 32.672l108.032 107.936h-257.984c-12.768 0.032-23.104 10.656-23.104 23.36v0z" />
<glyph unicode="&#xe94a;" glyph-name="goarrow" d="M391.392 215.744l226.112 232.8-243.552 242.112c-11.68 15.872 12.128 50.848 45.664 40.096l271.744-269.856c3.584-3.712 5.664-8.672 5.664-13.92s-2.048-10.24-5.728-13.92l-267.872-269.824c-43.616-0.096-48.704 32.64-32.032 52.512v0z" />
<glyph unicode="&#xe94b;" glyph-name="groupGrid" d="M692.608 639.68c-10.080 10.816-24.096 17.152-38.912 17.568h-406.016c-14.72-0.448-28.64-6.752-38.688-17.568-10.048-10.688-15.456-24.96-14.944-39.616v-384.832c-0.544-14.784 4.864-29.12 14.944-39.84 10.080-10.848 24.096-17.184 38.912-17.6h405.984c14.752 0.512 28.672 6.784 38.72 17.6 10.080 10.656 15.424 24.928 14.944 39.584v384.896c0.544 14.752-4.864 29.088-14.944 39.808zM791.456 738.112c-11.904 12.736-28.384 20.16-45.824 20.608h-349.312c-16.032 0-29.056-12.992-29.056-29.024 0-16 13.024-28.992 29.056-28.992h350.24c1.984-0.096 3.936-0.96 5.28-2.464 1.504-1.568 2.272-3.712 2.048-5.856v-387.584h2.976c3.552-9.888 12.416-16.864 22.816-18.272l1.44-0.096h0.384c7.488 0.288 14.688 3.52 19.776 9.024 5.152 5.44 7.872 12.64 7.616 20.064v375.904c0.672 17.248-5.6 34.112-17.44 46.688z" />
<glyph unicode="&#xe94c;" glyph-name="Import" d="M691.2 229.856v-78.048h-416.256c-20.8 0-36.448 15.616-36.448 41.632v541.088c0 26.048 20.8 41.696 41.632 41.696h416.256v-78.048h-338.208c-20.8 0-41.632-15.616-41.632-36.448v-390.24c0-25.984 20.8-41.632 41.632-41.632h333.024zM771.424 506.624h-223.36v-83.232h223.36v83.232zM548.064 610.72l-178.688-140.544 178.688-140.448v280.992z" />
<glyph unicode="&#xe94d;" glyph-name="incidentprocess" d="M288.96 664.896v-84.128c0-7.104 5.792-12.768 13.024-12.768h444.8c7.136 0 12.928 5.76 12.928 12.768v84.128c0 7.008-5.824 12.768-12.928 12.768h-444.8c-7.168 0.064-13.024-5.696-13.024-12.768v0zM683.872 503.072c0 7.008-5.856 12.768-13.024 12.768h-368.864c-7.168 0-13.024-5.76-13.024-12.768v-84.128c0-7.008 5.792-12.736 13.024-12.736h368.896c7.232 0 12.992 5.76 12.992 12.736v84.128zM565.28 341.184c0 7.136-5.824 12.8-12.928 12.8h-250.368c-7.168 0-13.024-5.696-13.024-12.8v-84.128c0-7.008 5.792-12.8 13.024-12.8h250.368c7.136 0 12.928 5.824 12.928 12.8v84.128zM254.784 180.512v557.824c0 11.712-9.696 21.28-21.632 21.28-11.968 0-21.632-9.568-21.632-21.28v-557.824c0-11.68 9.664-21.184 21.632-21.184 11.936 0 21.632 9.472 21.632 21.184v0z" />
<glyph unicode="&#xe94e;" glyph-name="IndependentDispose" d="M803.104 507.2h-29.088c-13.376 0-27.488 10.432-31.52 23.2l-16.672 40.608c-6.336 11.776-3.744 29.088 5.664 38.56l20.672 20.64c9.472 9.472 9.472 24.896 0 34.336l-34.304 34.272c-9.472 9.44-24.896 9.44-34.336 0l-20.672-20.64c-9.376-9.44-26.72-12-38.528-5.696l-40.544 16.704c-12.704 3.968-23.2 18.112-23.2 31.456v29.12c0 13.344-10.944 24.288-24.256 24.288h-48.512c-13.344 0-24.288-10.944-24.288-24.288v-29.12c0-13.376-10.432-27.552-23.2-31.456l-40.608-16.704c-11.776-6.336-29.088-3.776-38.496 5.696l-20.704 20.64c-9.408 9.408-24.864 9.408-34.272 0l-34.304-34.304c-9.472-9.472-9.472-24.896 0-34.304l20.576-20.672c9.472-9.408 12.032-26.752 5.728-38.528l-16.704-40.64c-3.968-12.736-18.048-23.2-31.456-23.2l-29.12 0.032c-13.344 0-24.288-10.912-24.288-24.256v-48.544c0-13.344 10.944-24.288 24.288-24.288h29.088c13.376 0 27.488-10.432 31.392-23.168l16.768-40.608c6.272-11.808 3.712-29.152-5.728-38.592l-20.64-20.608c-9.408-9.472-9.408-24.896 0-34.304l34.336-34.368c9.408-9.408 24.864-9.408 34.272 0l20.672 20.672c9.376 9.44 26.72 12 38.432 5.664l40.704-16.704c12.768-3.936 23.2-18.080 23.2-31.456v-29.024c0-13.312 10.848-24.256 24.288-24.256h48.512c13.312 0 24.256 10.944 24.256 24.256v29.024c0 13.376 10.464 27.52 23.2 31.456l40.64 16.704c11.776 6.336 29.12 3.744 38.592-5.664l20.544-20.672c9.44-9.408 24.896-9.408 34.336 0l34.304 34.368c9.472 9.44 9.472 24.832 0 34.304l-20.672 20.608c-9.44 9.472-12 26.816-5.664 38.592l16.672 40.608c4.032 12.704 18.176 23.168 31.52 23.168h29.088c13.312 0 24.256 10.912 24.256 24.256v48.576c0 13.344-10.912 24.256-24.224 24.256zM633.344 458.72c0-67.008-54.304-121.28-121.28-121.28-67.008 0-121.312 54.24-121.312 121.28 0 66.944 54.304 121.248 121.312 121.248 66.976 0.032 121.28-54.272 121.28-121.248z" />
<glyph unicode="&#xe94f;" glyph-name="info" d="M721.792 156.544h-419.552c-33.152 0-60.096 26.944-60.096 60.096v479.776c0 33.152 26.944 60.096 60.096 60.096h321.984c6.112 0 12-2.272 16.48-6.4l133.28-122.592c4.96-4.64 7.84-11.136 7.84-17.92v-392.96c0.032-33.184-26.944-60.096-60.032-60.096v0zM302.24 707.84c-6.208 0-11.488-5.28-11.488-11.456v-479.808c0-6.176 5.28-11.488 11.488-11.488h419.456c6.208 0 11.456 5.312 11.456 11.488v382.4l-118.304 108.864h-312.608zM757.536 585.344h-0.32l-133.248 1.728c-13.344 0.128-24.032 10.976-24.032 24.32v120.736c0 13.408 10.912 24.32 24.32 24.32s24.32-10.912 24.32-24.32v-96.832l109.248-1.344c13.408-0.128 24.16-11.2 24.032-24.608-0.16-13.376-10.976-24-24.32-24v0zM409.344 560.096h252.672v-44.096h-252.672v44.096zM409.344 438.048h252.672v-44.128h-252.672v44.128zM409.344 316.672h252.672v-44.096h-252.672v44.096zM356 559.744h30.016v-44.096h-30.016v44.096zM356 437.728h30.016v-44.128h-30.016v44.128zM356 316.352h30.016v-44.096h-30.016v44.096z" />
<glyph unicode="&#xe950;" glyph-name="MergeAppeal" d="M695.808 164.224h-185.632c-2.304 0-4.64 2.752-4.64 5.568v556.416c0 2.784 2.304 5.568 4.64 5.568h185.632c2.24 0 4.576-2.784 4.576-5.568v-33.376c0-2.784-2.304-5.568-4.576-5.568h-144.48c-2.24 0-4.544-2.752-4.544-5.568v-468.768c0-2.784 2.272-5.568 4.544-5.568h144.48c2.24 0 4.576-2.784 4.576-5.568v-32c1.12-2.816-1.184-5.568-4.576-5.568v0zM591.52 443.808l108.832-123.776c2.272-2.816 6.88 0 6.88 4.16v79.264c0 2.816 2.24 5.6 3.36 5.6h96.32c3.392 0 5.696 2.784 5.696 6.976v65.376c0 4.16-2.272 6.976-5.696 6.976h-96.32c-2.272 0-3.36 2.752-3.36 5.536v79.296c0 4.16-3.456 6.944-6.88 4.16l-108.832-123.808c-2.304-4.224-2.304-6.976 0-9.76zM285.568 731.776h185.632c2.304 0 4.608-2.784 4.608-5.568v-556.416c0-2.816-2.304-5.568-4.608-5.568h-185.632c-2.272 0-4.576 2.752-4.576 5.568v33.376c0 2.816 2.304 5.6 4.576 5.6h144.384c2.304 0 4.608 2.784 4.608 5.568v467.36c0 2.784-2.272 5.568-4.608 5.568h-144.384c-2.272 0-4.576 2.784-4.576 5.568v33.376c-1.152 2.784 1.152 5.568 4.576 5.568zM389.856 452.16l-108.832 123.808c-2.304 2.752-6.88 0-6.88-4.16v-79.296c0-2.784-2.272-5.568-3.456-5.568h-96.256c-3.424 0-5.728-2.784-5.728-6.976v-65.344c0-4.192 2.304-7.008 5.728-7.008h96.224c2.304 0 3.456-2.752 3.456-5.536v-79.328c0-4.192 3.424-6.944 6.88-4.192l108.832 123.84c2.304 4.192 2.304 6.944 0.032 9.76v0z" />
<glyph unicode="&#xe951;" glyph-name="position" d="M757.792 602.624c-10.464-23.52-23.872-48.064-37.408-70.816h30.944c10.624-25.408 16.992-52.192 19.104-79.744h-79.296c-0.48 10.176-1.088 20.032-2.144 29.92-16.64-25.088-28.928-41.728-28.928-41.728s-3.328 4.544-8.832 12.256c0-0.128 0-0.256 0-0.512h-119.168v79.808h67.392c-7.68 12.928-15.328 26.368-22.368 39.936h-45.056v116.704c3.424-1.024 6.88-2.336 10.272-3.84 1.056 16.192 4.928 30.848 11.232 43.744-13.632 1.856-27.488 2.848-41.536 2.848-165.216 0-299.072-133.92-299.072-299.040 0-165.088 133.856-299.040 299.072-299.040 165.184 0 299.040 133.952 299.040 299.040 0.032 63.264-19.68 122.048-53.248 170.464zM328.736 615.392c21.024 20.992 44.992 37.952 71.52 50.656-19.328-25.632-35.328-57.728-47.008-94.4h-59.776c10.080 15.744 21.824 30.368 35.264 43.744zM272.672 531.808h70.112c-5.344-25.184-8.736-51.904-9.76-79.744h-79.424c2.048 27.52 8.448 54.304 19.072 79.744zM253.536 412.128h79.424c1.088-27.68 4.512-54.496 9.792-79.68h-70.080c-10.624 25.44-17.024 52.224-19.136 79.68zM328.736 248.864c-13.376 13.44-25.12 28-35.232 43.68h59.776c11.68-36.64 27.68-68.736 46.976-94.368-26.56 12.704-50.496 29.696-71.52 50.688zM492.032 175.872c-9.056 2.752-18.080 7.072-26.944 13.376-16.544 11.552-32.416 29.568-45.792 51.936-9.28 15.424-17.248 32.576-24 51.36h96.704l0.032-116.672zM492.032 332.448h-108.416c-5.984 25.44-9.536 52.256-10.752 79.68h119.2v-79.68zM492.032 452.032h-119.2c1.216 27.552 4.768 54.272 10.752 79.744h108.416v-79.744zM492.032 571.68h-96.704c6.72 18.752 14.752 35.968 24.032 51.36 13.376 22.368 29.248 40.32 45.792 52 8.832 6.24 17.824 10.656 26.976 13.344v-116.704h-0.096zM532 412.128h119.2c-1.184-27.424-4.864-54.24-10.816-79.68h-108.384v79.68zM558.88 189.248c-8.832-6.304-17.824-10.624-26.88-13.376v116.672h96.672c-6.72-18.816-14.72-36-23.936-51.36-13.44-22.368-29.28-40.384-45.856-51.936zM695.232 248.864c-20.96-20.992-44.96-38.016-71.52-50.688 19.36 25.632 35.328 57.76 47.040 94.368h59.808c-10.176-15.68-21.952-30.24-35.328-43.68zM751.328 332.448h-70.112c5.312 25.184 8.768 52 9.952 79.68h79.296c-2.144-27.456-8.512-54.24-19.136-79.68zM660.48 762.88c-54.016 0-92.896-34.592-92.96-89.536 0-59.584 92.96-184.864 92.96-184.864s92.992 125.824 92.992 184.864c0 54.4-37.184 89.536-92.992 89.536zM696.512 683.968c0-19.904-15.84-36.096-35.552-36.096-19.52 0-35.552 16.128-35.552 36.096 0 18.272 13.312 33.344 30.72 35.776 2.144 0.512 4.384 0.704 6.624 0.704 18.688 0 33.792-15.136 33.792-33.728 0-0.288 0-0.544 0-0.768-0.032-0.736-0.032-1.344-0.032-1.984z" />
<glyph unicode="&#xe952;" glyph-name="refreshGrid" d="M820.48 488.512l-136.128 157.632-136-157.632h45.28c0 0 95.776-253.92-269.568-312.288 483.84-96.384 451.008 312.288 451.008 312.288h45.408zM326.56 281.248l136.064 151.808h-47.872c0 0-95.776 245.216 269.568 303.552-483.712 93.408-448.448-303.552-448.448-303.552h-45.344l136.032-151.808z" />
<glyph unicode="&#xe953;" glyph-name="searchFile" d="M836.416 176.704l-23.424-23.552c-9.216-9.248-24.224-9.248-33.472 0l-94.432 94.784c-22.72-13.28-49.152-20.96-77.376-20.96-84.896 0-158.464 73.824-158.464 159.072 0 85.184 68.832 154.24 153.728 154.24s158.496-73.792 158.496-159.040c0-29.312-8.128-56.736-22.304-80.064l93.92-94.24c9.184-9.312 12.544-20.96 3.328-30.24v0zM602.944 492.832c-58.752 0-106.432-47.84-106.432-106.816 0-59.040 52.416-111.584 111.168-111.584 58.784 0 106.464 47.872 106.464 106.816 0 59.008-52.416 111.584-111.2 111.584v0zM276.384 346.848v25.376h114.496c0.256-8.608 1.056-17.024 2.336-25.376h-116.832zM276.384 448.352h126.336c-2.944-8.256-5.472-16.672-7.36-25.376h-118.976v25.376zM276.384 499.072v25.376h173.568c-7.68-7.872-14.688-16.352-21.056-25.376h-152.512zM276.384 676.672h253.696v-25.376h-253.696v25.376zM530.048 575.712c-0.448-0.192-0.896-0.352-1.408-0.544h-252.256v25.408h253.696v-24.864h-0.032zM580.832 586.944v140.48h-355.2v-431.296h181.824c7.904-18.368 18.336-35.488 30.912-50.752h-212.704c-14.016 0-25.376 11.36-25.376 25.376v482.016c0 14.016 11.328 25.376 25.376 25.376h355.2c14.016 0 25.344-11.328 25.344-25.376v-165.216c-2.112 0.064-4.224 0.288-6.336 0.288-6.432 0.032-12.768-0.384-19.040-0.896v0z" />
<glyph unicode="&#xe954;" glyph-name="SelfDisposal" d="M455.296 750.496c56.256-0.032 113.76-47.872 132.512-110.176 16.608-55.2-3.616-110.432-55.328-151.168-45.824-36.128-95.424-39.2-146.752-8.96-95.808 56.384-93.024 190.112 6.144 250.336 18.656 11.328 38.784 17.44 63.424 19.968 0.576-1.536-0.672 1.568 0 0zM398.24 201.376c-51.584 5.888-103.168 11.744-154.752 17.696-0.576 0.064-1.152 0.128-1.696 0.256-43.968 9.408-45.952 12.672-32.48 54.144 9.088 28 17.696 56.224 27.648 83.872 15.872 44.096 49.664 66.944 94.656 69.216 52.48 2.688 105.216 1.088 157.824 0.672 18.112-0.16 21.248-6.432 13.504-23.008-1.952-4.192-4.16-8.288-6.592-12.224-30.72-49.44-40.672-102.080-26.464-159.296 5.792-23.456 1.248-27.904-22.752-28.384-12.128-0.256-24.288-0.064-36.448-0.064-4.032 0-8.064 0-12.096 0-0.128-0.928-0.256-1.952-0.352-2.88zM495.072 329.856c8.96 2.304 17.792 4.896 26.784 6.816 14.016 2.944 15.936 9.92 7.328 20.608-5.408 6.752-11.104 13.312-17.888 21.344 7.2 9.76 14.656 19.808 22.080 29.92 7.168 9.76 14.272 19.488 22.272 30.464 9.408-7.040 17.952-13.664 26.688-19.968 13.696-9.792 22.912-7.392 29.728 8.352 3.584 8.352 5.76 17.376 9.056 27.648 17.44 0 35.328 0.736 53.024-0.64 4-0.288 8.992-7.52 10.848-12.544 13.472-36.96 14.976-37.504 46.496-12.896 4.032 3.168 8.32 5.984 13.568 9.792 14.848-19.968 29.216-39.296 45.76-61.472-6.4-5.024-12.736-9.152-18.016-14.4-14.784-14.752-12.928-21.28 6.912-26.496 8.32-2.176 16.672-4.224 25.472-6.432 0-20.224 0-39.712 0-59.84-9.792-2.784-19.328-4.928-28.416-8.224-15.936-5.76-17.792-15.296-5.44-26.496 5.472-4.992 11.36-9.536 16.928-14.112-20.064-19.328-39.584-38.048-60.672-58.368-4.16 3.744-10.752 9.856-17.6 15.68-12.608 10.784-23.616 6.624-26.56-9.952-0.704-3.968-1.184-7.968-1.824-11.968-0.512-3.424-0.96-6.848-1.632-11.52-19.488 0-38.816 0-59.584 0-1.888 8.608-3.424 17.568-5.792 26.304-3.392 12.704-11.008 17.376-23.296 10.336-11.040-6.336-21.856-13.024-34.464-20.608-15.136 19.52-30.496 39.36-46.368 59.904 6.336 5.472 12.128 10.144 17.568 15.232 12.768 12 11.040 20-5.952 25.984-8.608 3.072-17.536 5.152-27.072 7.904 0.064 19.744 0.064 39.2 0.064 59.648zM727.328 300.928c-0.256 43.424-35.232 78.176-78.304 77.856-43.296-0.352-77.568-35.328-77.28-78.88 0.352-43.392 35.136-77.728 78.592-77.536s77.152 34.592 76.992 78.56z" />
<glyph unicode="&#xe955;" glyph-name="ShowAllIncident" d="M188.928 225.44h87.424v-88.064h-87.424v88.064zM366.464 225.44h468.608v-88.064h-468.608v88.064zM366.464 746.72h468.608v-88.096h-468.608v88.096zM366.464 568.576h468.608v-88.064h-468.608v88.064zM188.928 568.576h87.424v-88.064h-87.424v88.064zM366.464 397.344h468.608v-88.064h-468.608v88.064zM188.928 397.344h87.424v-88.064h-87.424v88.064zM188.928 746.72h87.424v-88.096h-87.424v88.096z" />
<glyph unicode="&#xe956;" glyph-name="ShowDangerous" d="M489.184 746.56h155.264l-116.448-238.848h194.048l-349.312-358.272 116.448 278.656h-155.264l155.264 318.464z" />
<glyph unicode="&#xe957;" glyph-name="taskFlowLineMsg" d="M716.384 740c-50.496 0-91.552-41.024-91.552-91.584 0-44.032 31.52-81.088 73.056-89.568v-87.104h-75.072c-8.512 41.536-45.536 73.056-89.6 73.056-44.032 0-81.024-31.52-89.536-73.056h-123.616v-111.584c-41.536-8.48-73.056-45.536-73.056-89.568 0-50.56 41.024-91.584 91.584-91.584s91.584 41.024 91.584 91.584c0 44.032-31.52 81.088-73.056 89.568v75.072h87.104c8.512-41.536 45.536-73.088 89.568-73.088s81.088 31.52 89.568 73.088h111.584v123.616c41.568 8.512 73.088 45.536 73.088 89.568-0.032 51.040-41.088 91.584-91.648 91.584v0zM393.12 271.104c0-30.528-24.544-55.072-55.072-55.072s-55.040 24.544-55.040 55.072 24.512 55.040 55.040 55.040c30.56-0.512 55.072-25.056 55.072-55.040zM533.76 398.688c-30.528 0-55.072 24.544-55.072 55.072s24.544 55.040 55.072 55.040 55.040-24.544 55.040-55.040c-0.512-30.528-25.024-55.072-55.040-55.072zM716.384 593.856c-30.496 0-55.040 24.544-55.040 55.072s24.544 55.040 55.040 55.040c30.56 0 55.104-24.544 55.104-55.040-0.032-30.528-24.544-55.072-55.104-55.072z" />
<glyph unicode="&#xe958;" glyph-name="send" d="M684.8 272l-243.2 73.6 243.2 278.4-316.8-278.4-188.8 73.6 598.4 316.8-92.8-464zM444.8 156.8v131.2l73.6-38.4-73.6-92.8z" />
<glyph unicode="&#xe959;" glyph-name="onfile" d="M608 409.6h-192c-9.6 0-19.2-6.4-19.2-19.2 0-9.6 6.4-19.2 19.2-19.2h192c9.6 0 19.2 6.4 19.2 19.2 0 9.6-9.6 19.2-19.2 19.2zM668.8 652.8h-313.6c-9.6 0-19.2-6.4-19.2-19.2 0-9.6 6.4-19.2 19.2-19.2h313.6c9.6 0 19.2 6.4 19.2 19.2 0 9.6-9.6 19.2-19.2 19.2v0zM668.8 531.2h-313.6c-9.6 0-19.2-6.4-19.2-19.2 0-9.6 6.4-19.2 19.2-19.2h313.6c9.6 0 19.2 6.4 19.2 19.2 0 9.6-9.6 19.2-19.2 19.2v0zM745.6 774.4h-467.2c-51.2 0-96-41.6-96-96v-467.2c0-51.2 41.6-96 96-96h467.2c51.2 0 96 41.6 96 96v470.4c0 51.2-44.8 92.8-96 92.8v0zM803.2 214.4c0-32-25.6-57.6-57.6-57.6h-467.2c-32 0-57.6 25.6-57.6 57.6v150.4h48l137.6-121.6h208l137.6 121.6h51.2v-150.4zM803.2 403.2h-64l-137.6-121.6h-179.2l-137.6 121.6h-64v278.4c0 32 25.6 57.6 57.6 57.6h467.2c32 0 57.6-25.6 57.6-57.6v-278.4z" />
<glyph unicode="&#xe95a;" glyph-name="link" d="M681.6 115.2h-524.8v454.4h528v-137.6h-67.2v70.4h-393.6v-320h390.4v67.2h67.2v-134.4zM870.4 307.2h-528v140.8h67.2v-73.6h390.4v320h-390.4v-73.6h-67.2v144h524.8v-457.6z" />
<glyph unicode="&#xe95b;" glyph-name="download" d="M851.2 224c3.2-12.8 3.2-22.4-3.2-32-3.2-9.6-9.6-19.2-19.2-28.8-9.6-6.4-19.2-12.8-32-19.2-12.8-3.2-25.6-6.4-41.6-6.4-89.6 0-172.8 0-243.2 0h-243.2c-16 0-32 3.2-44.8 9.6s-22.4 12.8-32 22.4c-6.4 9.6-12.8 19.2-16 28.8s-3.2 19.2 0 28.8c3.2 6.4 6.4 12.8 9.6 22.4 0 6.4 3.2 16 6.4 22.4s6.4 16 9.6 25.6l28.8 67.2h83.2l-32-89.6h464l-32 89.6h80c9.6-25.6 19.2-48 28.8-67.2 3.2-9.6 6.4-16 9.6-25.6s6.4-16 9.6-22.4c3.2-6.4 6.4-12.8 6.4-16 0-6.4 3.2-9.6 3.2-9.6v0zM486.4 304c-9.6 9.6-19.2 22.4-32 38.4s-22.4 32-35.2 48c-12.8 16-25.6 32-38.4 51.2-12.8 16-22.4 32-32 41.6-9.6 12.8-16 22.4-12.8 32s9.6 12.8 25.6 12.8c6.4 0 19.2 0 32 0s22.4 0 32 0c9.6 0 16 3.2 19.2 9.6s3.2 12.8 3.2 22.4c0 9.6 0 22.4 0 35.2s0 25.6 0 38.4c0 12.8 0 25.6 0 38.4s0 25.6 0 35.2c0 6.4 0 9.6 0 16s3.2 9.6 6.4 16c3.2 3.2 6.4 6.4 12.8 9.6s12.8 3.2 19.2 3.2c9.6 0 19.2 0 28.8 0s19.2 0 28.8 0c16 0 25.6-3.2 32-9.6s9.6-19.2 9.6-35.2v-28.8c0-9.6 0-22.4 0-35.2s0-25.6 0-38.4v-28.8c0-12.8 0-25.6 3.2-32s9.6-12.8 19.2-12.8c6.4 0 16 0 25.6 0s19.2 0 25.6 0c12.8 0 22.4-3.2 25.6-9.6s0-16-6.4-25.6c-9.6-12.8-19.2-25.6-32-41.6s-25.6-32-38.4-51.2-25.6-35.2-38.4-51.2-22.4-32-32-41.6c-9.6-16-19.2-22.4-25.6-22.4-9.6 0-16 3.2-25.6 16v0z" />
<glyph unicode="&#xe95c;" glyph-name="upload" d="M364.8 515.2c-12.8 0-22.4 3.2-25.6 9.6s0 16 6.4 25.6c9.6 12.8 19.2 25.6 32 41.6s25.6 32 38.4 51.2c12.8 16 25.6 35.2 38.4 51.2s22.4 32 32 41.6c9.6 9.6 16 16 25.6 16 6.4 0 16-3.2 25.6-16 9.6-9.6 19.2-25.6 32-41.6s22.4-32 35.2-48c12.8-16 25.6-35.2 38.4-51.2s22.4-32 32-41.6c9.6-12.8 16-22.4 12.8-32s-9.6-12.8-22.4-12.8c-9.6 0-19.2 0-32 0s-22.4 0-32 0c-9.6 0-16-3.2-19.2-9.6s-3.2-12.8-3.2-22.4v-35.2c0-12.8 0-25.6 0-38.4s0-25.6 0-38.4v-35.2c0-6.4 0-9.6 0-16s-3.2-9.6-6.4-16-6.4-6.4-12.8-9.6c-3.2 0-9.6 0-16 0-9.6 0-19.2 0-28.8 0s-19.2 0-28.8 0c-16 0-25.6 3.2-32 9.6s-9.6 19.2-9.6 35.2v28.8c0 9.6 0 22.4 0 35.2s0 25.6 0 38.4v35.2c0 16 0 25.6-3.2 35.2s-9.6 12.8-19.2 12.8c-6.4 0-16 0-25.6 0-12.8-3.2-22.4-3.2-32-3.2v0zM851.2 224c3.2-12.8 3.2-22.4-3.2-32-3.2-9.6-9.6-19.2-19.2-28.8-9.6-6.4-19.2-12.8-32-19.2-12.8-3.2-25.6-6.4-41.6-6.4h-486.4c-16 0-32 3.2-44.8 9.6s-22.4 12.8-32 22.4-12.8 19.2-16 28.8c-3.2 9.6-3.2 19.2 0 28.8 3.2 6.4 6.4 12.8 9.6 22.4 0 6.4 3.2 16 6.4 22.4s6.4 16 9.6 25.6l28.8 67.2h83.2l-32-89.6h464l-32 89.6h80c9.6-25.6 19.2-48 28.8-67.2 3.2-9.6 6.4-16 9.6-25.6s6.4-16 9.6-22.4c3.2-6.4 6.4-12.8 6.4-16s3.2-9.6 3.2-9.6v0z" />
<glyph unicode="&#xe95d;" glyph-name="limits" d="M793.6 694.4c-3.2 3.2-9.6 6.4-16 6.4 0 0-160-16-249.6 70.4-6.4 6.4-19.2 6.4-28.8 0-89.6-86.4-249.6-70.4-249.6-70.4-12.8 0-22.4-9.6-25.6-19.2 0 0 0 0 0-3.2v-153.6c0-332.8 278.4-403.2 281.6-406.4 3.2 0 6.4 0 9.6 0s281.6 70.4 281.6 406.4v153.6c3.2 6.4 0 12.8-3.2 16v0zM758.4 524.8c0-281.6-211.2-352-246.4-364.8-35.2 9.6-246.4 83.2-246.4 364.8v131.2c48 0 163.2 3.2 246.4 70.4 83.2-67.2 198.4-73.6 246.4-70.4v-131.2zM617.6 518.4c0 57.6-48 105.6-105.6 105.6s-105.6-48-105.6-105.6c0-54.4 41.6-99.2 92.8-105.6v-124.8c0-12.8 9.6-19.2 19.2-19.2 12.8 0 19.2 9.6 19.2 19.2v41.6h41.6c12.8 0 19.2 9.6 19.2 19.2 0 12.8-9.6 19.2-19.2 19.2h-41.6v48c48 12.8 80 54.4 80 102.4zM448 518.4c0 35.2 28.8 64 64 64s64-28.8 64-64-28.8-64-64-64-64 28.8-64 64v0z" />
<glyph unicode="&#xe95e;" glyph-name="limits02" d="M512 588.8c-25.6 0-44.8-19.2-44.8-44.8s19.2-44.8 44.8-44.8c25.6 0 44.8 19.2 44.8 44.8s-19.2 44.8-44.8 44.8zM694.4 720c-67.2 0-131.2 22.4-182.4 60.8-51.2-38.4-115.2-60.8-182.4-60.8-25.6 0-48 3.2-73.6 12.8v-288c0-25.6 9.6-60.8 28.8-96s48-76.8 80-115.2c28.8-35.2 67.2-67.2 99.2-92.8 16-12.8 28.8-19.2 38.4-25.6 6.4-3.2 9.6-3.2 16 0 9.6 6.4 22.4 16 38.4 25.6 35.2 25.6 70.4 60.8 102.4 92.8 35.2 38.4 64 76.8 83.2 115.2 19.2 35.2 28.8 67.2 28.8 92.8v288c-28.8-6.4-51.2-9.6-76.8-9.6zM540.8 422.4v-124.8c0-16-12.8-28.8-28.8-28.8v0c-16 0-28.8 12.8-28.8 28.8v124.8c-51.2 12.8-92.8 60.8-92.8 115.2 0 67.2 54.4 118.4 118.4 118.4s118.4-54.4 118.4-118.4c3.2-57.6-35.2-102.4-86.4-115.2z" />
<glyph unicode="&#xe95f;" glyph-name="role" d="M681.6 419.2c54.4 0 28.8 0 54.4 0 54.4 0 54.4 118.4 54.4 144 0 86.4-163.2 86.4-163.2 0 0-25.6 0-144 54.4-144zM476.8 470.4c70.4 0 35.2 0 70.4 0 70.4 0 70.4 147.2 70.4 185.6 0 112-208 112-208 0-3.2-38.4-3.2-185.6 67.2-185.6zM288 419.2c54.4 0 28.8 0 54.4 0 54.4 0 54.4 118.4 54.4 144 0 86.4-163.2 86.4-163.2 0-3.2-25.6-3.2-144 54.4-144zM252.8 355.2c3.2 3.2 6.4 3.2 9.6 6.4s6.4 6.4 12.8 6.4c3.2 3.2 9.6 6.4 12.8 6.4s6.4 3.2 9.6 3.2 9.6 6.4 16 6.4c-60.8 0-118.4-16-153.6-54.4-41.6-38.4-41.6-121.6-41.6-121.6h64c0 9.6 3.2 19.2 6.4 28.8 0 0 0 0 0 3.2 0 16 3.2 25.6 6.4 35.2v3.2c3.2 9.6 9.6 19.2 12.8 28.8v3.2c6.4 9.6 12.8 19.2 19.2 25.6 12.8 9.6 19.2 16 25.6 19.2zM867.2 336c-35.2 38.4-96 54.4-153.6 54.4 32-12.8 57.6-28.8 80-51.2 32-35.2 48-86.4 54.4-128h64c-6.4 0-6.4 83.2-44.8 124.8zM284.8 339.2c-57.6-60.8-57.6-182.4-57.6-182.4h569.6c0 0 0 121.6-57.6 182.4-99.2 108.8-355.2 108.8-454.4 0z" />
<glyph unicode="&#xe960;" glyph-name="userset" d="M662.4 352c-35.2 0-64-28.8-64-64s28.8-64 64-64c35.2 0 64 28.8 64 64-3.2 35.2-28.8 64-64 64v0zM662.4 259.2c-16 0-32 12.8-32 32 0 16 16 28.8 32 28.8s28.8-12.8 28.8-28.8c0-19.2-12.8-32-28.8-32 0 0 0 0 0 0zM828.8 320c-3.2 12.8-9.6 19.2-19.2 19.2v0c-19.2 0-35.2 16-35.2 35.2 0 6.4 3.2 12.8 3.2 12.8 6.4 9.6 0 25.6-9.6 32l-41.6 22.4c-9.6 3.2-22.4 3.2-32-6.4-6.4-6.4-19.2-16-28.8-16s-22.4 12.8-28.8 16c-6.4 9.6-19.2 9.6-32 6.4v0l-41.6-22.4c-9.6-6.4-12.8-19.2-9.6-32 3.2-3.2 3.2-9.6 3.2-12.8 0-19.2-16-35.2-35.2-35.2h-3.2c-9.6 0-19.2-9.6-19.2-19.2 0-3.2-3.2-19.2-3.2-32s3.2-32 3.2-32c3.2-12.8 9.6-19.2 19.2-19.2v0c19.2 0 35.2-16 35.2-35.2 0-6.4-3.2-12.8-3.2-12.8-6.4-9.6 0-25.6 9.6-32l41.6-22.4c9.6-3.2 22.4-3.2 32 6.4 6.4 6.4 19.2 16 28.8 16s25.6-12.8 28.8-19.2c6.4-6.4 12.8-9.6 19.2-9.6 3.2 0 6.4 0 12.8 3.2l41.6 22.4c9.6 6.4 12.8 19.2 9.6 32-3.2 3.2-3.2 9.6-3.2 12.8 0 19.2 16 35.2 35.2 35.2h3.2c9.6 0 19.2 9.6 19.2 19.2 0 0 3.2 19.2 3.2 32 0 16-3.2 35.2-3.2 35.2v0zM796.8 265.6c-35.2-3.2-60.8-32-60.8-67.2 0-6.4 3.2-16 3.2-19.2l-28.8-16c-3.2 3.2-6.4 6.4-12.8 9.6-12.8 9.6-25.6 16-38.4 16s-25.6-6.4-38.4-16c-3.2-3.2-9.6-6.4-12.8-9.6l-28.8 16c3.2 6.4 3.2 12.8 3.2 19.2 0 35.2-25.6 64-60.8 67.2 0 6.4-3.2 16-3.2 22.4s0 16 3.2 22.4c35.2 3.2 60.8 32 60.8 67.2 0 6.4-3.2 16-3.2 19.2l32 16c3.2-3.2 6.4-6.4 12.8-9.6 12.8-9.6 25.6-12.8 38.4-12.8s22.4 3.2 35.2 12.8c6.4 3.2 9.6 6.4 12.8 9.6l28.8-16c-3.2-6.4-3.2-12.8-3.2-19.2 0-35.2 25.6-64 60.8-67.2 0-6.4 3.2-16 3.2-22.4s-3.2-16-3.2-22.4v0zM470.4 768c-89.6 0-163.2-73.6-163.2-163.2 0-51.2 22.4-96 64-128l9.6-6.4-12.8-3.2c-105.6-41.6-176-144-176-256v-57.6c0-12.8 9.6-22.4 22.4-22.4h307.2c-9.6 12.8-19.2 25.6-25.6 41.6h-262.4v35.2c0 121.6 92.8 220.8 214.4 233.6v0 0c6.4 0 16 0 22.4 0h3.2c25.6 3.2 67.2 9.6 86.4 25.6l9.6 6.4c38.4 32 64 76.8 64 128 0 92.8-73.6 166.4-163.2 166.4zM470.4 486.4c-67.2 0-121.6 54.4-121.6 121.6s54.4 121.6 121.6 121.6c67.2 0 121.6-54.4 121.6-121.6s-54.4-121.6-121.6-121.6z" />
</font>
</defs>
</svg>
